<svg width="24" height="24" viewBox="0 0 24 24" fill="none" xmlns="http://www.w3.org/2000/svg">
<path d="M8.23871 4.21934C8.09826 4.35997 8.01937 4.55059 8.01937 4.74934C8.01937 4.94809 8.09826 5.13871 8.23871 5.27934L14.9587 11.9993L8.23871 18.7193C8.16502 18.788 8.10592 18.8708 8.06493 18.9628C8.02394 19.0548 8.00189 19.1541 8.00012 19.2548C7.99834 19.3555 8.01686 19.4555 8.05459 19.5489C8.09231 19.6423 8.14845 19.7272 8.21967 19.7984C8.29089 19.8696 8.37572 19.9257 8.46911 19.9635C8.5625 20.0012 8.66253 20.0197 8.76323 20.0179C8.86393 20.0162 8.96325 19.9941 9.05525 19.9531C9.14725 19.9121 9.23005 19.853 9.29871 19.7793L16.5487 12.5293C16.6892 12.3887 16.768 12.1981 16.768 11.9993C16.768 11.8006 16.6892 11.61 16.5487 11.4693L9.29871 4.21934C9.15808 4.07889 8.96746 4 8.76871 4C8.56996 4 8.37933 4.07889 8.23871 4.21934Z" fill="#7A7878"/>
</svg>
