<svg width="64" height="64" viewBox="0 0 64 64" fill="none" xmlns="http://www.w3.org/2000/svg">
<rect width="64" height="64" rx="12" fill="url(#paint0_linear_320_22757)"/>
<path d="M32.36 18.4454C32.1933 18.4454 32.0287 18.4826 31.8783 18.5542C31.7278 18.6259 31.5951 18.7301 31.49 18.8594L31.403 18.9239C29.7719 18.4275 28.0369 18.3819 26.3821 18.7921C24.7273 19.2022 23.2144 20.0527 22.004 21.2534C20.9311 22.3158 20.1333 23.6237 19.6796 25.0638C19.2259 26.5039 19.1299 28.0328 19.4 29.5184L19.3775 29.5409L17.9405 30.9674C17.6437 31.2614 17.4082 31.6113 17.2474 31.9968C17.0867 32.3823 17.0039 32.7959 17.0039 33.2136C17.0039 33.6314 17.0867 34.0449 17.2474 34.4305C17.4082 34.816 17.6437 35.1659 17.9405 35.4599C18.2895 35.8065 18.7136 36.0681 19.18 36.2245C19.6464 36.3808 20.1425 36.4277 20.63 36.3614C20.8038 36.9938 21.1681 37.5574 21.6735 37.9755C22.1788 38.3937 22.8007 38.6461 23.4545 38.6984C23.5217 39.4675 23.8651 40.1863 24.4213 40.7219C24.9775 41.2574 25.7088 41.5734 26.48 41.6114C26.519 42.3719 26.8295 43.1189 27.413 43.6979C28.553 44.8319 30.341 44.9294 31.5935 43.9934L32.174 44.5694C32.7782 45.1681 33.5944 45.504 34.445 45.504C35.2956 45.504 36.1117 45.1681 36.716 44.5694C37.271 44.0174 37.5815 43.3124 37.646 42.5924C38.3945 42.529 39.0966 42.2036 39.6289 41.6735C40.1612 41.1434 40.4895 40.4426 40.556 39.6944C41.2153 39.6338 41.8395 39.3697 42.3421 38.9386C42.8446 38.5075 43.2007 37.9308 43.361 37.2884C43.8411 37.3459 44.328 37.294 44.7852 37.1366C45.2424 36.9792 45.658 36.7203 46.001 36.3794C46.2975 36.0854 46.5328 35.7356 46.6934 35.3502C46.8541 34.9648 46.9368 34.5514 46.9368 34.1339C46.9368 33.7164 46.8541 33.3029 46.6934 32.9175C46.5328 32.5321 46.2975 32.1824 46.001 31.8884L44.7515 30.6449L45.0095 29.6459C45.5676 27.4719 45.2865 25.1674 44.222 23.1914C43.4474 21.7568 42.299 20.5587 40.8985 19.7242C39.498 18.8897 37.8977 18.4498 36.2675 18.4514H33.857C33.754 18.4469 33.651 18.4449 33.548 18.4454H32.3615H32.36ZM36.7475 25.8629L41.9435 31.0259L41.948 31.0319L41.969 31.0514L44.4065 33.4739C44.4935 33.5603 44.5626 33.6632 44.6098 33.7764C44.657 33.8897 44.6813 34.0112 44.6813 34.1339C44.6813 34.2566 44.657 34.3781 44.6098 34.4913C44.5626 34.6046 44.4935 34.7074 44.4065 34.7939C44.2295 34.9688 43.9908 35.067 43.742 35.067C43.4931 35.067 43.2544 34.9688 43.0775 34.7939L40.64 32.3714C40.4276 32.1611 40.1408 32.0431 39.842 32.0431C39.5431 32.0431 39.2563 32.1611 39.044 32.3714L39.02 32.3969C38.9152 32.5006 38.8321 32.6241 38.7754 32.7602C38.7187 32.8963 38.6895 33.0422 38.6895 33.1896C38.6895 33.3371 38.7187 33.483 38.7754 33.6191C38.8321 33.7551 38.9152 33.8786 39.02 33.9824L40.919 35.8709C41.006 35.9573 41.0751 36.0602 41.1223 36.1734C41.1695 36.2867 41.1938 36.4082 41.1938 36.5309C41.1938 36.6536 41.1695 36.7751 41.1223 36.8883C41.0751 37.0016 41.006 37.1044 40.919 37.1909C40.7588 37.3503 40.5468 37.447 40.3214 37.4636C40.096 37.4801 39.8722 37.4153 39.6905 37.2809C39.4723 37.1175 39.2025 37.0383 38.9306 37.0575C38.6588 37.0768 38.4029 37.1934 38.21 37.3859C38.0178 37.578 37.9023 37.8336 37.8852 38.1048C37.8681 38.376 37.9505 38.6441 38.117 38.8589C38.2553 39.0385 38.3233 39.2625 38.3081 39.4887C38.2929 39.715 38.1956 39.9279 38.0345 40.0874C37.8714 40.2489 37.6552 40.3457 37.4261 40.3595C37.197 40.3733 36.9707 40.3032 36.7895 40.1624C36.5726 39.9932 36.3017 39.9087 36.0271 39.9244C35.7526 39.9401 35.4931 40.0551 35.297 40.2479C35.1015 40.4402 34.9837 40.6977 34.966 40.9713C34.9483 41.2449 35.0319 41.5155 35.201 41.7314C35.3427 41.9138 35.4127 42.1418 35.3978 42.3723C35.3828 42.6027 35.284 42.8198 35.12 42.9824C34.9402 43.1601 34.6977 43.2598 34.445 43.2598C34.1922 43.2598 33.9497 43.1601 33.77 42.9824L33.212 42.4289L33.3695 42.2714C33.666 41.9774 33.9013 41.6276 34.0619 41.2422C34.2226 40.8568 34.3053 40.4434 34.3053 40.0259C34.3053 39.6084 34.2226 39.1949 34.0619 38.8095C33.9013 38.4241 33.666 38.0744 33.3695 37.7804C32.8085 37.2219 32.0601 36.8916 31.2695 36.8534C31.2267 36.0827 30.9062 35.3537 30.3674 34.801C29.8285 34.2484 29.1078 33.9096 28.3385 33.8474C28.277 33.0961 27.9487 32.3916 27.413 31.8614C27.0639 31.5147 26.6398 31.2531 26.1734 31.0968C25.707 30.9405 25.2109 30.8936 24.7235 30.9599C24.533 30.2695 24.1165 29.6629 23.5405 29.2373C22.9645 28.8117 22.2623 28.5916 21.5465 28.6124C21.4326 27.5573 21.558 26.4902 21.9136 25.4903C22.2691 24.4905 22.8455 23.5837 23.6 22.8374C24.303 22.139 25.1435 21.5943 26.0682 21.238C26.9929 20.8816 27.9816 20.7214 28.9715 20.7674L26.726 22.4669C26.3611 22.7431 26.0544 23.0887 25.8235 23.4838C25.5927 23.879 25.4423 24.3158 25.3809 24.7693C25.3196 25.2228 25.3486 25.684 25.4661 26.1263C25.5837 26.5685 25.7875 26.9832 26.066 27.3464C26.6283 28.0794 27.4576 28.5603 28.3731 28.6842C29.2886 28.8081 30.216 28.565 30.953 28.0079L33.7865 25.8614L36.7475 25.8629ZM28.0835 24.2624L32.792 20.6954H33.548C33.6415 20.6947 33.7351 20.6972 33.8285 20.7029H36.2675C37.4912 20.7012 38.6926 21.0308 39.7442 21.6567C40.7958 22.2826 41.6584 23.1814 42.2405 24.2579C42.983 25.6379 43.2155 27.2249 42.9065 28.7504L38.09 23.9564C37.9851 23.8478 37.8595 23.7615 37.7206 23.7025C37.5817 23.6434 37.4324 23.613 37.2815 23.6129H33.41C33.1647 23.6128 32.926 23.6928 32.7305 23.8409L29.5955 26.2154C29.3325 26.4138 29.0019 26.5004 28.6755 26.4563C28.3491 26.4122 28.0533 26.241 27.8525 25.9799C27.7544 25.8521 27.6826 25.7061 27.6411 25.5504C27.5997 25.3947 27.5895 25.2324 27.6111 25.0727C27.6327 24.9131 27.6857 24.7593 27.7671 24.6202C27.8484 24.4811 27.9564 24.3595 28.085 24.2624H28.0835ZM23.0525 36.1949C22.9654 36.1084 22.8963 36.0056 22.8491 35.8923C22.802 35.7791 22.7777 35.6576 22.7777 35.5349C22.7777 35.4122 22.802 35.2907 22.8491 35.1774C22.8963 35.0642 22.9654 34.9613 23.0525 34.8749L24.488 33.4469C24.6649 33.2719 24.9036 33.1738 25.1525 33.1738C25.4013 33.1738 25.64 33.2719 25.817 33.4469C25.9908 33.6194 26.0895 33.8535 26.0918 34.0984C26.094 34.3433 25.9996 34.5792 25.829 34.7549L25.817 34.7669L24.3815 36.1934L24.368 36.2069C24.1901 36.3762 23.9533 36.4696 23.7078 36.4674C23.4622 36.4651 23.2272 36.3674 23.0525 36.1949ZM22.316 31.1414C22.486 31.317 22.5798 31.5526 22.577 31.797C22.5742 32.0414 22.475 32.2748 22.301 32.4464L20.8655 33.8744C20.6886 34.0493 20.4498 34.1475 20.201 34.1475C19.9521 34.1475 19.7134 34.0493 19.5365 33.8744C19.4494 33.7879 19.3803 33.6851 19.3331 33.5718C19.286 33.4586 19.2617 33.3371 19.2617 33.2144C19.2617 33.0917 19.286 32.9702 19.3331 32.8569C19.3803 32.7437 19.4494 32.6408 19.5365 32.5544L20.9735 31.1279C21.1504 30.9529 21.3891 30.8548 21.638 30.8548C21.8868 30.8548 22.1255 30.9529 22.3025 31.1279L22.316 31.1414ZM30.338 42.1124C30.161 42.2873 29.9223 42.3855 29.6735 42.3855C29.4246 42.3855 29.1859 42.2873 29.009 42.1124C28.9219 42.0259 28.8528 41.9231 28.8056 41.8098C28.7585 41.6966 28.7342 41.5751 28.7342 41.4524C28.7342 41.3297 28.7585 41.2082 28.8056 41.0949C28.8528 40.9817 28.9219 40.8788 29.009 40.7924L30.4445 39.3659C30.6214 39.1909 30.8601 39.0928 31.109 39.0928C31.3578 39.0928 31.5965 39.1909 31.7735 39.3659C31.8605 39.4523 31.9296 39.5552 31.9768 39.6684C32.024 39.7817 32.0483 39.9032 32.0483 40.0259C32.0483 40.1486 32.024 40.2701 31.9768 40.3833C31.9296 40.4966 31.8605 40.5994 31.7735 40.6859L30.338 42.1124ZM27.3065 39.1004C27.1297 39.2757 26.8909 39.3741 26.642 39.3741C26.393 39.3741 26.1542 39.2757 25.9775 39.1004C25.8034 38.9281 25.7044 38.6941 25.7019 38.4492C25.6994 38.2043 25.7935 37.9683 25.964 37.7924L25.9775 37.7804L27.413 36.3539L27.425 36.3404C27.6031 36.1708 27.8403 36.0774 28.0862 36.0799C28.3321 36.0824 28.5674 36.1807 28.742 36.3539C28.829 36.4403 28.8981 36.5432 28.9453 36.6564C28.9925 36.7697 29.0168 36.8912 29.0168 37.0139C29.0168 37.1366 28.9925 37.2581 28.9453 37.3713C28.8981 37.4846 28.829 37.5874 28.742 37.6739L27.3065 39.1004Z" fill="white"/>
<defs>
<linearGradient id="paint0_linear_320_22757" x1="4.2" y1="55.2" x2="74.8056" y2="39.4337" gradientUnits="userSpaceOnUse">
<stop stop-color="#0C44AC"/>
<stop offset="1" stop-color="#548BF3"/>
</linearGradient>
</defs>
</svg>
