<svg width="64" height="64" viewBox="0 0 64 64" fill="none" xmlns="http://www.w3.org/2000/svg">
<rect width="64" height="64" rx="12" fill="url(#paint0_linear_320_22764)"/>
<path d="M36.131 29C37.58 29 38.756 30.176 38.756 31.625V38.7485C38.756 40.5391 38.0447 42.2564 36.7785 43.5225C35.5124 44.7887 33.7951 45.5 32.0045 45.5C30.2139 45.5 28.4966 44.7887 27.2305 43.5225C25.9643 42.2564 25.253 40.5391 25.253 38.7485V31.625C25.253 30.176 26.4275 29 27.878 29H36.131ZM36.131 31.25H27.878C27.7785 31.25 27.6832 31.2895 27.6128 31.3598C27.5425 31.4302 27.503 31.5255 27.503 31.625V38.7485C27.503 39.9424 27.9773 41.0873 28.8215 41.9315C29.6657 42.7757 30.8106 43.25 32.0045 43.25C33.1984 43.25 34.3433 42.7757 35.1875 41.9315C36.0317 41.0873 36.506 39.9424 36.506 38.7485V31.625C36.506 31.5255 36.4665 31.4302 36.3962 31.3598C36.3258 31.2895 36.2305 31.25 36.131 31.25ZM19.625 29H24.6965C24.1673 29.6391 23.8441 30.4236 23.7695 31.25H19.625C19.5255 31.25 19.4302 31.2895 19.3598 31.3598C19.2895 31.4302 19.25 31.5255 19.25 31.625V36.4985C19.2499 37.0653 19.3783 37.6248 19.6254 38.1349C19.8726 38.645 20.2321 39.0925 20.677 39.4437C21.1219 39.7949 21.6406 40.0407 22.1941 40.1627C22.7477 40.2847 23.3217 40.2797 23.873 40.148C24.0005 40.904 24.233 41.6255 24.5525 42.296C23.6634 42.5338 22.7315 42.564 21.8289 42.3842C20.9263 42.2044 20.0772 41.8194 19.3471 41.259C18.6171 40.6986 18.0257 39.9778 17.6187 39.1523C17.2117 38.3269 17 37.4188 17 36.4985V31.625C17 30.176 18.176 29 19.625 29ZM39.3125 29H44.375C45.824 29 47 30.176 47 31.625V36.5C47.0002 37.4197 46.789 38.3272 46.3826 39.1523C45.9762 39.9774 45.3856 40.6981 44.6563 41.2586C43.9271 41.819 43.0788 42.2044 42.1769 42.3848C41.275 42.5652 40.3437 42.5358 39.455 42.299C39.776 41.627 40.0085 40.9055 40.1375 40.1495C40.6881 40.2796 41.2611 40.2835 41.8134 40.1608C42.3657 40.038 42.8831 39.7919 43.3268 39.4408C43.7705 39.0898 44.129 38.6429 44.3755 38.1336C44.622 37.6243 44.75 37.0658 44.75 36.5V31.625C44.75 31.5255 44.7105 31.4302 44.6402 31.3598C44.5698 31.2895 44.4745 31.25 44.375 31.25H40.2395C40.1649 30.4236 39.8417 29.6391 39.3125 29ZM32 18.5C33.1935 18.5 34.3381 18.9741 35.182 19.818C36.0259 20.6619 36.5 21.8065 36.5 23C36.5 24.1935 36.0259 25.3381 35.182 26.182C34.3381 27.0259 33.1935 27.5 32 27.5C30.8065 27.5 29.6619 27.0259 28.818 26.182C27.9741 25.3381 27.5 24.1935 27.5 23C27.5 21.8065 27.9741 20.6619 28.818 19.818C29.6619 18.9741 30.8065 18.5 32 18.5ZM41.75 20C42.7446 20 43.6984 20.3951 44.4016 21.0983C45.1049 21.8016 45.5 22.7554 45.5 23.75C45.5 24.7446 45.1049 25.6984 44.4016 26.4017C43.6984 27.1049 42.7446 27.5 41.75 27.5C40.7554 27.5 39.8016 27.1049 39.0984 26.4017C38.3951 25.6984 38 24.7446 38 23.75C38 22.7554 38.3951 21.8016 39.0984 21.0983C39.8016 20.3951 40.7554 20 41.75 20ZM22.25 20C23.2446 20 24.1984 20.3951 24.9017 21.0983C25.6049 21.8016 26 22.7554 26 23.75C26 24.7446 25.6049 25.6984 24.9017 26.4017C24.1984 27.1049 23.2446 27.5 22.25 27.5C21.2554 27.5 20.3016 27.1049 19.5983 26.4017C18.8951 25.6984 18.5 24.7446 18.5 23.75C18.5 22.7554 18.8951 21.8016 19.5983 21.0983C20.3016 20.3951 21.2554 20 22.25 20ZM32 20.75C31.4033 20.75 30.831 20.9871 30.409 21.409C29.9871 21.831 29.75 22.4033 29.75 23C29.75 23.5967 29.9871 24.169 30.409 24.591C30.831 25.0129 31.4033 25.25 32 25.25C32.5967 25.25 33.169 25.0129 33.591 24.591C34.0129 24.169 34.25 23.5967 34.25 23C34.25 22.4033 34.0129 21.831 33.591 21.409C33.169 20.9871 32.5967 20.75 32 20.75ZM41.75 22.25C41.3522 22.25 40.9706 22.408 40.6893 22.6893C40.408 22.9706 40.25 23.3522 40.25 23.75C40.25 24.1478 40.408 24.5294 40.6893 24.8107C40.9706 25.092 41.3522 25.25 41.75 25.25C42.1478 25.25 42.5294 25.092 42.8107 24.8107C43.092 24.5294 43.25 24.1478 43.25 23.75C43.25 23.3522 43.092 22.9706 42.8107 22.6893C42.5294 22.408 42.1478 22.25 41.75 22.25ZM22.25 22.25C21.8522 22.25 21.4706 22.408 21.1893 22.6893C20.908 22.9706 20.75 23.3522 20.75 23.75C20.75 24.1478 20.908 24.5294 21.1893 24.8107C21.4706 25.092 21.8522 25.25 22.25 25.25C22.6478 25.25 23.0294 25.092 23.3107 24.8107C23.592 24.5294 23.75 24.1478 23.75 23.75C23.75 23.3522 23.592 22.9706 23.3107 22.6893C23.0294 22.408 22.6478 22.25 22.25 22.25Z" fill="white"/>
<defs>
<linearGradient id="paint0_linear_320_22764" x1="4.2" y1="55.2" x2="74.8056" y2="39.4337" gradientUnits="userSpaceOnUse">
<stop stop-color="#0C44AC"/>
<stop offset="1" stop-color="#548BF3"/>
</linearGradient>
</defs>
</svg>
