<svg width="64" height="64" viewBox="0 0 64 64" fill="none" xmlns="http://www.w3.org/2000/svg">
<rect width="64" height="64" rx="12" fill="url(#paint0_linear_1156_9881)"/>
<path d="M34.9922 30.5001C34.9922 31.0963 34.8145 31.679 34.4819 32.1738C34.1493 32.6686 33.6768 33.053 33.1247 33.2781V36.8751C33.1247 37.1735 33.0062 37.4596 32.7952 37.6706C32.5842 37.8816 32.2981 38.0001 31.9997 38.0001C31.7013 38.0001 31.4152 37.8816 31.2042 37.6706C30.9932 37.4596 30.8747 37.1735 30.8747 36.8751V33.2841C30.3692 33.0812 29.9285 32.7445 29.5999 32.3102C29.2712 31.8759 29.067 31.3602 29.0092 30.8186C28.9513 30.2771 29.042 29.7299 29.2715 29.236C29.501 28.742 29.8606 28.3198 30.3118 28.0148C30.763 27.7097 31.2888 27.5332 31.8327 27.5042C32.3766 27.4753 32.9181 27.5949 33.3992 27.8504C33.8802 28.1058 34.2827 28.4874 34.5633 28.9542C34.8439 29.421 34.9922 29.9554 34.9922 30.5001Z" fill="white"/>
<path d="M19.625 21.5C19.3266 21.5 19.0405 21.6185 18.8295 21.8295C18.6185 22.0405 18.5 22.3266 18.5 22.625V30.5C18.5 38.0015 22.937 43.514 31.5875 46.922C31.8526 47.0265 32.1474 47.0265 32.4125 46.922C41.063 43.514 45.5 38 45.5 30.5V22.625C45.5 22.3266 45.3815 22.0405 45.1705 21.8295C44.9595 21.6185 44.6734 21.5 44.375 21.5C40.3805 21.5 36.488 20.0855 32.675 17.225C32.4803 17.079 32.2434 17 32 17C31.7566 17 31.5197 17.079 31.325 17.225C27.512 20.0855 23.6195 21.5 19.625 21.5ZM20.75 30.5V23.717C24.6155 23.489 28.37 22.082 32 19.517C35.63 22.082 39.3845 23.489 43.25 23.717V30.5C43.25 36.884 39.5705 41.5685 32 44.663C24.4295 41.5685 20.75 36.884 20.75 30.5Z" fill="white"/>
<defs>
<linearGradient id="paint0_linear_1156_9881" x1="4.2" y1="55.2" x2="74.8056" y2="39.4337" gradientUnits="userSpaceOnUse">
<stop stop-color="#0C44AC"/>
<stop offset="1" stop-color="#548BF3"/>
</linearGradient>
</defs>
</svg>
