<svg width="64" height="64" viewBox="0 0 64 64" fill="none" xmlns="http://www.w3.org/2000/svg">
<rect width="64" height="64" rx="12" fill="url(#paint0_linear_320_22771)"/>
<path d="M18.5 22.625C18.5 22.3266 18.6185 22.0405 18.8295 21.8295C19.0405 21.6185 19.3266 21.5 19.625 21.5C23.6195 21.5 27.512 20.0855 31.325 17.225C31.5197 17.079 31.7566 17 32 17C32.2434 17 32.4803 17.079 32.675 17.225C36.488 20.0855 40.3805 21.5 44.375 21.5C44.6734 21.5 44.9595 21.6185 45.1705 21.8295C45.3815 22.0405 45.5 22.3266 45.5 22.625V30.5C45.5 31.007 45.479 31.505 45.44 31.994C44.7533 31.5614 44.015 31.2167 43.2425 30.968C43.247 30.8135 43.25 30.6575 43.25 30.5V23.717C39.3845 23.489 35.63 22.082 32 19.517C28.37 22.082 24.6155 23.489 20.75 23.717V30.5C20.75 36.7235 24.248 41.3315 31.4375 44.4275C31.8306 45.2545 32.338 46.022 32.945 46.7075L32.4125 46.922C32.1474 47.0265 31.8526 47.0265 31.5875 46.922C22.937 43.514 18.5 38 18.5 30.5V22.625ZM48.5 40.25C48.5 42.438 47.6308 44.5365 46.0836 46.0836C44.5365 47.6308 42.438 48.5 40.25 48.5C38.062 48.5 35.9635 47.6308 34.4164 46.0836C32.8692 44.5365 32 42.438 32 40.25C32 38.062 32.8692 35.9635 34.4164 34.4164C35.9635 32.8692 38.062 32 40.25 32C42.438 32 44.5365 32.8692 46.0836 34.4164C47.6308 35.9635 48.5 38.062 48.5 40.25ZM45.281 36.719C45.2113 36.6492 45.1286 36.5937 45.0374 36.5559C44.9463 36.5181 44.8487 36.4987 44.75 36.4987C44.6513 36.4987 44.5537 36.5181 44.4626 36.5559C44.3714 36.5937 44.2887 36.6492 44.219 36.719L38.75 42.1895L36.281 39.719C36.1402 39.5782 35.9492 39.4991 35.75 39.4991C35.5508 39.4991 35.3598 39.5782 35.219 39.719C35.0782 39.8598 34.9991 40.0508 34.9991 40.25C34.9991 40.4492 35.0782 40.6402 35.219 40.781L38.219 43.781C38.2887 43.8508 38.3714 43.9063 38.4626 43.9441C38.5537 43.9819 38.6513 44.0013 38.75 44.0013C38.8487 44.0013 38.9463 43.9819 39.0374 43.9441C39.1286 43.9063 39.2113 43.8508 39.281 43.781L45.281 37.781C45.3508 37.7113 45.4063 37.6286 45.4441 37.5374C45.4819 37.4463 45.5013 37.3487 45.5013 37.25C45.5013 37.1513 45.4819 37.0537 45.4441 36.9626C45.4063 36.8714 45.3508 36.7887 45.281 36.719Z" fill="white"/>
<defs>
<linearGradient id="paint0_linear_320_22771" x1="4.2" y1="55.2" x2="74.8056" y2="39.4337" gradientUnits="userSpaceOnUse">
<stop stop-color="#0C44AC"/>
<stop offset="1" stop-color="#548BF3"/>
</linearGradient>
</defs>
</svg>
