<svg width="48" height="48" viewBox="0 0 48 48" fill="none" xmlns="http://www.w3.org/2000/svg">
<path d="M34.9998 23.9998C37.9172 23.9998 40.7151 25.1587 42.778 27.2216C44.8409 29.2845 45.9998 32.0824 45.9998 34.9998C45.9998 37.9171 44.8409 40.715 42.778 42.7779C40.7151 44.8408 37.9172 45.9998 34.9998 45.9998C32.0824 45.9998 29.2845 44.8408 27.2216 42.7779C25.1587 40.715 23.9998 37.9171 23.9998 34.9998C23.9998 32.0824 25.1587 29.2845 27.2216 27.2216C29.2845 25.1587 32.0824 23.9998 34.9998 23.9998ZM24.0458 27.9998C23.4464 28.9348 22.9698 29.9431 22.6278 30.9998H8.50581C8.30876 30.9995 8.11358 31.0381 7.93148 31.1134C7.74937 31.1887 7.58391 31.2992 7.44457 31.4385C7.30522 31.5779 7.19475 31.7433 7.11946 31.9254C7.04417 32.1075 7.00555 32.3027 7.00581 32.4998V33.6538C7.00581 34.7238 7.38981 35.7598 8.08581 36.5738C10.5918 39.5118 14.5258 41.0018 19.9998 41.0018C21.1938 41.0018 22.3138 40.9318 23.3598 40.7898C23.8518 41.7798 24.4658 42.6978 25.1838 43.5238C23.5938 43.8438 21.8638 44.0038 19.9998 44.0038C13.7078 44.0038 8.93581 42.1918 5.80381 38.5238C4.64458 37.1659 4.00775 35.4391 4.00781 33.6538V32.4978C4.00781 31.3048 4.48171 30.1607 5.32525 29.3172C6.16879 28.4737 7.31287 27.9998 8.50581 27.9998H24.0458ZM34.9998 27.9998L34.8198 28.0158C34.62 28.0523 34.436 28.1488 34.2924 28.2924C34.1488 28.436 34.0523 28.62 34.0158 28.8198L33.9998 28.9998V33.9998H29.0078L28.8278 34.0158C28.628 34.0523 28.444 34.1488 28.3004 34.2924C28.1568 34.436 28.0603 34.62 28.0238 34.8198L28.0078 34.9998L28.0238 35.1798C28.0603 35.3796 28.1568 35.5635 28.3004 35.7072C28.444 35.8508 28.628 35.9473 28.8278 35.9838L29.0078 35.9998H33.9998V40.9998L34.0158 41.1798C34.0523 41.3796 34.1488 41.5635 34.2924 41.7072C34.436 41.8508 34.62 41.9473 34.8198 41.9838L34.9998 41.9998L35.1798 41.9838C35.3796 41.9473 35.5636 41.8508 35.7072 41.7072C35.8508 41.5635 35.9473 41.3796 35.9838 41.1798L35.9998 40.9998V35.9998H41.0078L41.1878 35.9838C41.3876 35.9473 41.5716 35.8508 41.7152 35.7072C41.8588 35.5635 41.9553 35.3796 41.9918 35.1798L42.0078 34.9998L41.9918 34.8198C41.9553 34.62 41.8588 34.436 41.7152 34.2924C41.5716 34.1488 41.3876 34.0523 41.1878 34.0158L41.0078 33.9998H35.9998V28.9998L35.9838 28.8198C35.9473 28.62 35.8508 28.436 35.7072 28.2924C35.5636 28.1488 35.3796 28.0523 35.1798 28.0158L34.9998 27.9998ZM19.9998 4.00977C21.313 4.00977 22.6134 4.26842 23.8266 4.77097C25.0399 5.27352 26.1423 6.01011 27.0709 6.9387C27.9995 7.86728 28.7361 8.96968 29.2386 10.1829C29.7412 11.3962 29.9998 12.6965 29.9998 14.0098C29.9998 15.323 29.7412 16.6233 29.2386 17.8366C28.7361 19.0499 27.9995 20.1522 27.0709 21.0808C26.1423 22.0094 25.0399 22.746 23.8266 23.2486C22.6134 23.7511 21.313 24.0098 19.9998 24.0098C17.3476 24.0098 14.8041 22.9562 12.9287 21.0808C11.0534 19.2055 9.99981 16.6619 9.99981 14.0098C9.99981 11.3576 11.0534 8.81406 12.9287 6.9387C14.8041 5.06333 17.3476 4.00977 19.9998 4.00977ZM19.9998 7.00977C19.0806 7.00977 18.1703 7.19083 17.321 7.54261C16.4718 7.89439 15.7001 8.41001 15.0501 9.06002C14.4001 9.71003 13.8844 10.4817 13.5327 11.331C13.1809 12.1803 12.9998 13.0905 12.9998 14.0098C12.9998 14.929 13.1809 15.8393 13.5327 16.6885C13.8844 17.5378 14.4001 18.3095 15.0501 18.9595C15.7001 19.6095 16.4718 20.1251 17.321 20.4769C18.1703 20.8287 19.0806 21.0098 19.9998 21.0098C21.8563 21.0098 23.6368 20.2723 24.9496 18.9595C26.2623 17.6468 26.9998 15.8663 26.9998 14.0098C26.9998 12.1532 26.2623 10.3728 24.9496 9.06002C23.6368 7.74726 21.8563 7.00977 19.9998 7.00977Z" fill="url(#paint0_linear_1719_8771)"/>
<defs>
<linearGradient id="paint0_linear_1719_8771" x1="6.76354" y1="40.2261" x2="53.0894" y2="29.881" gradientUnits="userSpaceOnUse">
<stop stop-color="#0C44AC"/>
<stop offset="1" stop-color="#548BF3"/>
</linearGradient>
</defs>
</svg>
