<svg width="56" height="56" viewBox="0 0 56 56" fill="none" xmlns="http://www.w3.org/2000/svg">
<path d="M24.5 16.333C23.5807 16.333 22.6705 16.5141 21.8212 16.8659C20.9719 17.2176 20.2003 17.7332 19.5503 18.3833C18.9002 19.0333 18.3846 19.8049 18.0328 20.6542C17.6811 21.5035 17.5 22.4138 17.5 23.333C17.5 24.2523 17.6811 25.1625 18.0328 26.0118C18.3846 26.8611 18.9002 27.6327 19.5503 28.2828C20.2003 28.9328 20.9719 29.4484 21.8212 29.8002C22.6705 30.1519 23.5807 30.333 24.5 30.333C26.3565 30.333 28.137 29.5955 29.4497 28.2828C30.7625 26.97 31.5 25.1895 31.5 23.333C31.5 21.4765 30.7625 19.696 29.4497 18.3833C28.137 17.0705 26.3565 16.333 24.5 16.333ZM21 23.333C21 22.4047 21.3687 21.5145 22.0251 20.8581C22.6815 20.2018 23.5717 19.833 24.5 19.833C25.4283 19.833 26.3185 20.2018 26.9749 20.8581C27.6313 21.5145 28 22.4047 28 23.333C28 24.2613 27.6313 25.1515 26.9749 25.8079C26.3185 26.4643 25.4283 26.833 24.5 26.833C23.5717 26.833 22.6815 26.4643 22.0251 25.8079C21.3687 25.1515 21 24.2613 21 23.333Z" fill="url(#paint0_linear_315_22713)"/>
<path d="M4.66602 14.583C4.66602 13.1906 5.21914 11.8553 6.2037 10.8707C7.18827 9.88613 8.52363 9.33301 9.91602 9.33301H39.0827C39.7721 9.33301 40.4548 9.4688 41.0918 9.73264C41.7287 9.99648 42.3075 10.3832 42.795 10.8707C43.2825 11.3582 43.6692 11.937 43.933 12.5739C44.1969 13.2109 44.3327 13.8936 44.3327 14.583V32.083C44.3327 32.7724 44.1969 33.4551 43.933 34.0921C43.6692 34.7291 43.2825 35.3078 42.795 35.7953C42.3075 36.2828 41.7287 36.6695 41.0918 36.9334C40.4548 37.1972 39.7721 37.333 39.0827 37.333H9.91602C8.52363 37.333 7.18827 36.7799 6.2037 35.7953C5.21914 34.8108 4.66602 33.4754 4.66602 32.083V14.583ZM9.91602 12.833C9.45189 12.833 9.00677 13.0174 8.67858 13.3456C8.35039 13.6738 8.16602 14.1189 8.16602 14.583V16.333H9.91602C10.3801 16.333 10.8253 16.1486 11.1535 15.8204C11.4816 15.4923 11.666 15.0471 11.666 14.583V12.833H9.91602ZM8.16602 26.833H9.91602C11.3084 26.833 12.6438 27.3861 13.6283 28.3707C14.6129 29.3553 15.166 30.6906 15.166 32.083V33.833H33.8327V32.083C33.8327 30.6906 34.3858 29.3553 35.3704 28.3707C36.3549 27.3861 37.6903 26.833 39.0827 26.833H40.8327V19.833H39.0827C37.6903 19.833 36.3549 19.2799 35.3704 18.2953C34.3858 17.3108 33.8327 15.9754 33.8327 14.583V12.833H15.166V14.583C15.166 15.2724 15.0302 15.9551 14.7664 16.5921C14.5025 17.2291 14.1158 17.8078 13.6283 18.2953C13.1408 18.7828 12.5621 19.1695 11.9251 19.4334C11.2881 19.6972 10.6055 19.833 9.91602 19.833H8.16602V26.833ZM40.8327 16.333V14.583C40.8327 14.1189 40.6483 13.6738 40.3201 13.3456C39.9919 13.0174 39.5468 12.833 39.0827 12.833H37.3327V14.583C37.3327 15.549 38.1167 16.333 39.0827 16.333H40.8327ZM40.8327 30.333H39.0827C38.6186 30.333 38.1734 30.5174 37.8452 30.8456C37.5171 31.1738 37.3327 31.6189 37.3327 32.083V33.833H39.0827C39.5468 33.833 39.9919 33.6486 40.3201 33.3204C40.6483 32.9923 40.8327 32.5471 40.8327 32.083V30.333ZM8.16602 32.083C8.16602 33.049 8.95002 33.833 9.91602 33.833H11.666V32.083C11.666 31.6189 11.4816 31.1738 11.1535 30.8456C10.8253 30.5174 10.3801 30.333 9.91602 30.333H8.16602V32.083Z" fill="url(#paint1_linear_315_22713)"/>
<path d="M10.2695 40.8332C10.8839 41.8978 11.7679 42.7818 12.8325 43.3962C13.897 44.0107 15.1047 44.3338 16.3339 44.3332H40.2505C41.706 44.3332 43.1472 44.0465 44.4919 43.4895C45.8366 42.9326 47.0584 42.1162 48.0876 41.087C49.1168 40.0578 49.9332 38.836 50.4902 37.4913C51.0472 36.1466 51.3339 34.7054 51.3339 33.2499V20.9999C51.3339 18.4099 49.9269 16.1465 47.8339 14.9355V33.2499C47.8339 35.2611 47.0349 37.19 45.6128 38.6121C44.1906 40.0343 42.2618 40.8332 40.2505 40.8332H10.2695Z" fill="url(#paint2_linear_315_22713)"/>
<defs>
<linearGradient id="paint0_linear_315_22713" x1="18.4187" y1="28.408" x2="33.8637" y2="24.9591" gradientUnits="userSpaceOnUse">
<stop stop-color="#0C44AC"/>
<stop offset="1" stop-color="#548BF3"/>
</linearGradient>
<linearGradient id="paint1_linear_315_22713" x1="7.26914" y1="33.483" x2="49.0326" y2="20.2714" gradientUnits="userSpaceOnUse">
<stop stop-color="#0C44AC"/>
<stop offset="1" stop-color="#548BF3"/>
</linearGradient>
<linearGradient id="paint2_linear_315_22713" x1="12.9644" y1="40.291" x2="56.3088" y2="26.771" gradientUnits="userSpaceOnUse">
<stop stop-color="#0C44AC"/>
<stop offset="1" stop-color="#548BF3"/>
</linearGradient>
</defs>
</svg>
