<svg width="48" height="48" viewBox="0 0 48 48" fill="none" xmlns="http://www.w3.org/2000/svg">
<path d="M27.85 6C28.6341 5.99994 29.4046 6.20475 30.0852 6.59415C30.7657 6.98354 31.3327 7.544 31.73 8.22L33.358 10.994H37.5C38.3536 10.994 39.1988 11.1621 39.9874 11.4888C40.7761 11.8154 41.4926 12.2942 42.0962 12.8978C42.6998 13.5014 43.1786 14.2179 43.5052 15.0066C43.8319 15.7952 44 16.6404 44 17.494V36.494C44 37.3476 43.8319 38.1928 43.5052 38.9814C43.1786 39.7701 42.6998 40.4866 42.0962 41.0902C41.4926 41.6938 40.7761 42.1726 39.9874 42.4992C39.1988 42.8259 38.3536 42.994 37.5 42.994H10.5C8.77609 42.994 7.12279 42.3092 5.90381 41.0902C4.68482 39.8712 4 38.2179 4 36.494V17.494C4 15.7701 4.68482 14.1168 5.90381 12.8978C7.12279 11.6788 8.77609 10.994 10.5 10.994H14.66L16.41 8.146C16.8124 7.49044 17.3761 6.94896 18.0473 6.57327C18.7185 6.19757 19.4748 6.0002 20.244 6H27.85ZM27.85 9H20.244C20.0251 9.00018 19.809 9.04825 19.6106 9.14085C19.4123 9.23344 19.2367 9.36831 19.096 9.536L18.966 9.716L16.78 13.276C16.646 13.4946 16.4581 13.6753 16.2343 13.8006C16.0106 13.926 15.7585 13.9919 15.502 13.992H10.502C10.042 13.9917 9.58653 14.0821 9.16153 14.258C8.73653 14.4339 8.35037 14.6919 8.02513 15.0171C7.69988 15.3424 7.44194 15.7285 7.26604 16.1535C7.09014 16.5785 6.99974 17.034 7 17.494V36.494C7 38.426 8.568 39.994 10.5 39.994H37.5C38.4283 39.994 39.3185 39.6252 39.9749 38.9689C40.6312 38.3125 41 37.4223 41 36.494V17.494C41 16.5657 40.6312 15.6755 39.9749 15.0191C39.3185 14.3627 38.4283 13.994 37.5 13.994H32.5C32.2385 13.9941 31.9816 13.9259 31.7546 13.7961C31.5276 13.6663 31.3385 13.4794 31.206 13.254L29.142 9.74C29.0097 9.51486 28.8209 9.32817 28.5943 9.19838C28.3677 9.06859 28.1111 9.00021 27.85 9ZM24 16.994C26.3869 16.994 28.6761 17.9422 30.364 19.63C32.0518 21.3179 33 23.6071 33 25.994C33 28.3809 32.0518 30.6701 30.364 32.358C28.6761 34.0458 26.3869 34.994 24 34.994C21.6131 34.994 19.3239 34.0458 17.636 32.358C15.9482 30.6701 15 28.3809 15 25.994C15 23.6071 15.9482 21.3179 17.636 19.63C19.3239 17.9422 21.6131 16.994 24 16.994ZM24 19.994C23.2121 19.994 22.4319 20.1492 21.7039 20.4507C20.9759 20.7523 20.3145 21.1942 19.7574 21.7514C19.2002 22.3085 18.7583 22.9699 18.4567 23.6979C18.1552 24.4259 18 25.2061 18 25.994C18 26.7819 18.1552 27.5621 18.4567 28.2901C18.7583 29.0181 19.2002 29.6795 19.7574 30.2366C20.3145 30.7938 20.9759 31.2357 21.7039 31.5373C22.4319 31.8388 23.2121 31.994 24 31.994C25.5913 31.994 27.1174 31.3619 28.2426 30.2366C29.3679 29.1114 30 27.5853 30 25.994C30 24.4027 29.3679 22.8766 28.2426 21.7514C27.1174 20.6261 25.5913 19.994 24 19.994Z" fill="white"/>
</svg>
