<svg width="48" height="48" viewBox="0 0 48 48" fill="none" xmlns="http://www.w3.org/2000/svg">
<path d="M5 8.5C5 8.10218 5.15804 7.72064 5.43934 7.43934C5.72064 7.15804 6.10218 7 6.5 7H7.616C9.516 7 10.656 8.278 11.306 9.466C11.74 10.258 12.054 11.176 12.3 12.008C12.3665 12.0027 12.4333 12.0001 12.5 12H37.496C39.156 12 40.356 13.588 39.9 15.186L36.244 28.004C35.9162 29.1537 35.2227 30.1653 34.2686 30.8856C33.3144 31.6059 32.1515 31.9957 30.956 31.996H19.06C17.855 31.996 16.6833 31.6004 15.725 30.8697C14.7668 30.1391 14.075 29.114 13.756 27.952L12.236 22.408L9.716 13.912L9.714 13.896C9.402 12.762 9.11 11.7 8.674 10.908C8.256 10.138 7.92 10 7.618 10H6.5C6.10218 10 5.72064 9.84196 5.43934 9.56066C5.15804 9.27936 5 8.89782 5 8.5ZM15.146 21.68L16.648 27.158C16.948 28.242 17.934 28.996 19.06 28.996H30.956C31.4994 28.996 32.028 28.8189 32.4618 28.4916C32.8956 28.1643 33.2109 27.7046 33.36 27.182L36.834 15H13.17L15.118 21.574L15.146 21.68ZM22 38C22 39.0609 21.5786 40.0783 20.8284 40.8284C20.0783 41.5786 19.0609 42 18 42C16.9391 42 15.9217 41.5786 15.1716 40.8284C14.4214 40.0783 14 39.0609 14 38C14 36.9391 14.4214 35.9217 15.1716 35.1716C15.9217 34.4214 16.9391 34 18 34C19.0609 34 20.0783 34.4214 20.8284 35.1716C21.5786 35.9217 22 36.9391 22 38ZM19 38C19 37.7348 18.8946 37.4804 18.7071 37.2929C18.5196 37.1054 18.2652 37 18 37C17.7348 37 17.4804 37.1054 17.2929 37.2929C17.1054 37.4804 17 37.7348 17 38C17 38.2652 17.1054 38.5196 17.2929 38.7071C17.4804 38.8946 17.7348 39 18 39C18.2652 39 18.5196 38.8946 18.7071 38.7071C18.8946 38.5196 19 38.2652 19 38ZM36 38C36 39.0609 35.5786 40.0783 34.8284 40.8284C34.0783 41.5786 33.0609 42 32 42C30.9391 42 29.9217 41.5786 29.1716 40.8284C28.4214 40.0783 28 39.0609 28 38C28 36.9391 28.4214 35.9217 29.1716 35.1716C29.9217 34.4214 30.9391 34 32 34C33.0609 34 34.0783 34.4214 34.8284 35.1716C35.5786 35.9217 36 36.9391 36 38ZM33 38C33 37.7348 32.8946 37.4804 32.7071 37.2929C32.5196 37.1054 32.2652 37 32 37C31.7348 37 31.4804 37.1054 31.2929 37.2929C31.1054 37.4804 31 37.7348 31 38C31 38.2652 31.1054 38.5196 31.2929 38.7071C31.4804 38.8946 31.7348 39 32 39C32.2652 39 32.5196 38.8946 32.7071 38.7071C32.8946 38.5196 33 38.2652 33 38Z" fill="url(#paint0_linear_320_23323)"/>
<defs>
<linearGradient id="paint0_linear_320_23323" x1="7.29671" y1="37.1875" x2="45.9067" y2="28.5665" gradientUnits="userSpaceOnUse">
<stop stop-color="#0C44AC"/>
<stop offset="1" stop-color="#548BF3"/>
</linearGradient>
</defs>
</svg>
