<svg width="48" height="48" viewBox="0 0 48 48" fill="none" xmlns="http://www.w3.org/2000/svg">
<path d="M19.1215 6C16.5983 5.99924 14.1157 6.63497 11.9035 7.84836C9.69121 9.06175 7.82078 10.8136 6.46529 12.9417C5.1098 15.0699 4.31305 17.5056 4.14877 20.0234C3.98449 22.5412 4.458 25.0598 5.52547 27.346L4.07747 33.03C3.97104 33.4475 3.97432 33.8855 4.08701 34.3013C4.19969 34.7172 4.41794 35.0969 4.7206 35.4036C5.02325 35.7102 5.40002 35.9335 5.81437 36.0517C6.22872 36.1698 6.66658 36.1789 7.08547 36.078C8.58547 35.718 10.8915 35.164 12.9455 34.674C14.9849 35.5937 17.2042 36.0455 19.4409 35.9964C21.6776 35.9473 23.8749 35.3985 25.872 34.3902C27.8691 33.3819 29.6154 31.9397 30.9829 30.1691C32.3505 28.3985 33.3047 26.3445 33.7756 24.1574C34.2465 21.9703 34.2222 19.7056 33.7045 17.5291C33.1869 15.3526 32.1889 13.3195 30.7837 11.5786C29.3786 9.83777 27.6018 8.43328 25.5835 7.46802C23.5653 6.50275 21.3567 6.00117 19.1195 6H19.1215ZM7.12147 21C7.12226 18.3906 7.97358 15.8526 9.54643 13.7705C11.1193 11.6884 13.3279 10.1757 15.8378 9.46166C18.3476 8.74761 21.0217 8.87111 23.455 9.81345C25.8883 10.7558 27.9482 12.4656 29.3224 14.6838C30.6967 16.902 31.3104 19.5077 31.0707 22.1061C30.831 24.7044 29.7509 27.1538 27.994 29.0832C26.2371 31.0125 23.8992 32.3166 21.3345 32.7978C18.7699 33.279 16.1183 32.9112 13.7815 31.75L13.2935 31.508L12.7655 31.634C10.9195 32.074 8.78547 32.584 7.18947 32.968L8.56947 27.552L8.70947 27L8.44947 26.494C7.57354 24.7953 7.11812 22.9112 7.12147 21ZM29.1215 42C25.1815 42 21.5975 40.482 18.9215 38H19.1215C20.5575 38 21.9515 37.822 23.2815 37.486C25.0115 38.45 27.0015 39 29.1215 39C31.0415 39 32.8535 38.55 34.4615 37.75L34.9475 37.508L35.4755 37.634C37.3195 38.074 39.4075 38.524 40.9555 38.854C40.6055 37.352 40.1275 35.342 39.6715 33.552L39.5315 33L39.7915 32.494C40.6681 30.7955 41.1242 28.9114 41.1215 27C41.1225 24.9937 40.6201 23.0193 39.6602 21.2575C38.7004 19.4957 37.3138 18.003 35.6275 16.916C35.2749 15.4874 34.737 14.1111 34.0275 12.822C36.0129 13.5095 37.8319 14.6063 39.3666 16.0414C40.9013 17.4765 42.1175 19.2178 42.9365 21.1528C43.7555 23.0877 44.159 25.1731 44.1209 27.2739C44.0829 29.3746 43.604 31.444 42.7155 33.348C43.2215 35.364 43.7335 37.548 44.0575 38.954C44.1525 39.3613 44.1432 39.786 44.0306 40.1889C43.918 40.5917 43.7057 40.9596 43.4132 41.2587C43.1208 41.5577 42.7577 41.7782 42.3574 41.8997C41.9572 42.0212 41.5328 42.0399 41.1235 41.954C39.1767 41.5492 37.2346 41.1225 35.2975 40.674C33.3567 41.5508 31.2511 42.0029 29.1215 42Z" fill="url(#paint0_linear_1156_9706)"/>
<defs>
<linearGradient id="paint0_linear_1156_9706" x1="6.6331" y1="37.0561" x2="50.3953" y2="26.1668" gradientUnits="userSpaceOnUse">
<stop stop-color="#0C44AC"/>
<stop offset="1" stop-color="#548BF3"/>
</linearGradient>
</defs>
</svg>
