<svg width="48" height="48" viewBox="0 0 48 48" fill="none" xmlns="http://www.w3.org/2000/svg">
<path d="M25 5.5C25 5.10218 24.842 4.72064 24.5607 4.43934C24.2794 4.15804 23.8978 4 23.5 4C23.1022 4 22.7206 4.15804 22.4393 4.43934C22.158 4.72064 22 5.10218 22 5.5V6H10.5C8.77609 6 7.12279 6.68482 5.90381 7.90381C4.68482 9.12279 4 10.7761 4 12.5V31.5C4 33.2239 4.68482 34.8772 5.90381 36.0962C7.12279 37.3152 8.77609 38 10.5 38H15.296L12.346 41.54C12.0914 41.8458 11.9687 42.2402 12.0049 42.6365C12.0411 43.0327 12.2332 43.3984 12.539 43.653C12.8448 43.9076 13.2392 44.0303 13.6355 43.9941C14.0317 43.9579 14.3974 43.7658 14.652 43.46L19.2 38H24.056C24.0172 37.6681 23.9978 37.3342 23.998 37V36C23.998 35.658 24.032 35.324 24.098 35H10.498C9.56974 35 8.6795 34.6313 8.02313 33.9749C7.36675 33.3185 6.998 32.4283 6.998 31.5V12.5C6.998 10.568 8.566 9 10.498 9H37.498C39.43 9 40.998 10.568 40.998 12.5V19.91C41.8491 20.6685 42.5155 21.6116 42.9464 22.6671C43.3772 23.7226 43.5611 24.8626 43.484 26H44V12.5C44 11.6464 43.8319 10.8012 43.5052 10.0126C43.1786 9.22394 42.6998 8.50739 42.0962 7.90381C41.4926 7.30022 40.7761 6.82144 39.9874 6.49478C39.1988 6.16813 38.3536 6 37.5 6H25V5.5ZM41.478 26C41.5665 25.0429 41.4016 24.0793 41 23.206C40.4434 21.9927 39.4646 21.0232 38.246 20.4782C37.0274 19.9333 35.6521 19.8502 34.3768 20.2444C33.1014 20.6386 32.0129 21.4831 31.3143 22.6206C30.6156 23.7581 30.3545 25.1108 30.5796 26.4266C30.8047 27.7424 31.5007 28.9314 32.5377 29.7719C33.5748 30.6125 34.8821 31.0472 36.216 30.9949C37.5499 30.9427 38.8192 30.4072 39.7874 29.4881C40.7556 28.5691 41.3564 27.3294 41.478 26ZM43 33C43.7957 33 44.5587 33.3161 45.1213 33.8787C45.6839 34.4413 46 35.2044 46 36V37C46 40.942 42.28 45 36 45C30.25 45 26.648 41.6 26.08 38C26.0273 37.6693 26.0005 37.3349 26 37V36C25.9992 35.6058 26.0763 35.2153 26.2268 34.851C26.3772 34.4867 26.5982 34.1556 26.8769 33.8769C27.1557 33.5982 27.4867 33.3772 27.851 33.2267C28.2153 33.0763 28.6058 32.9992 29 33H43ZM12 15.5C12 15.1022 12.158 14.7206 12.4393 14.4393C12.7206 14.158 13.1022 14 13.5 14H21.5C21.8978 14 22.2794 14.158 22.5607 14.4393C22.842 14.7206 23 15.1022 23 15.5C23 15.8978 22.842 16.2794 22.5607 16.5607C22.2794 16.842 21.8978 17 21.5 17H13.5C13.1022 17 12.7206 16.842 12.4393 16.5607C12.158 16.2794 12 15.8978 12 15.5ZM13.5 20C13.1022 20 12.7206 20.158 12.4393 20.4393C12.158 20.7206 12 21.1022 12 21.5C12 21.8978 12.158 22.2794 12.4393 22.5607C12.7206 22.842 13.1022 23 13.5 23H26.5C26.8978 23 27.2794 22.842 27.5607 22.5607C27.842 22.2794 28 21.8978 28 21.5C28 21.1022 27.842 20.7206 27.5607 20.4393C27.2794 20.158 26.8978 20 26.5 20H13.5ZM12 27.5C12 27.1022 12.158 26.7206 12.4393 26.4393C12.7206 26.158 13.1022 26 13.5 26H24.5C24.8978 26 25.2794 26.158 25.5607 26.4393C25.842 26.7206 26 27.1022 26 27.5C26 27.8978 25.842 28.2794 25.5607 28.5607C25.2794 28.842 24.8978 29 24.5 29H13.5C13.1022 29 12.7206 28.842 12.4393 28.5607C12.158 28.2794 12 27.8978 12 27.5Z" fill="url(#paint0_linear_315_20028)"/>
<defs>
<linearGradient id="paint0_linear_315_20028" x1="6.75625" y1="39.3625" x2="52.9828" y2="28.7883" gradientUnits="userSpaceOnUse">
<stop stop-color="#0C44AC"/>
<stop offset="1" stop-color="#548BF3"/>
</linearGradient>
</defs>
</svg>
