<svg width="56" height="56" viewBox="0 0 56 56" fill="none" xmlns="http://www.w3.org/2000/svg">
<path d="M37.514 22.606C37.8073 22.3371 37.9818 21.9626 37.9991 21.5651C38.0163 21.1675 37.8749 20.7793 37.606 20.486C37.3371 20.1927 36.9626 20.0182 36.5651 20.0009C36.1675 19.9837 35.7793 20.1251 35.486 20.394L24.546 30.424L20.56 26.44C20.2757 26.175 19.8996 26.0308 19.511 26.0376C19.1224 26.0445 18.7516 26.2019 18.4768 26.4768C18.2019 26.7516 18.0445 27.1224 18.0377 27.511C18.0308 27.8996 18.175 28.2757 18.44 28.56L23.44 33.56C23.7132 33.8334 24.0814 33.9908 24.4678 33.9993C24.8542 34.0079 25.229 33.867 25.514 33.606L37.514 22.606ZM44.5 14C39.174 14 33.984 12.114 28.9 8.3C28.6404 8.10527 28.3246 8 28 8C27.6754 8 27.3596 8.10527 27.1 8.3C22.016 12.114 16.826 14 11.5 14C11.1022 14 10.7206 14.158 10.4393 14.4393C10.158 14.7206 10 15.1022 10 15.5V26C10 36.002 15.916 43.352 27.45 47.896C27.8034 48.0353 28.1966 48.0353 28.55 47.896C40.084 43.352 46 36 46 26V15.5C46 15.1022 45.842 14.7206 45.5607 14.4393C45.2794 14.158 44.8978 14 44.5 14ZM13 16.956C18.154 16.652 23.16 14.776 28 11.356C32.84 14.776 37.846 16.652 43 16.956V26C43 34.512 38.094 40.758 28 44.884C17.906 40.758 13 34.512 13 26V16.956Z" fill="url(#paint0_linear_315_22705)"/>
<defs>
<linearGradient id="paint0_linear_315_22705" x1="12.3625" y1="42.5004" x2="52.4398" y2="34.4461" gradientUnits="userSpaceOnUse">
<stop stop-color="#0C44AC"/>
<stop offset="1" stop-color="#548BF3"/>
</linearGradient>
</defs>
</svg>
