<svg width="24" height="24" viewBox="0 0 24 24" fill="none" xmlns="http://www.w3.org/2000/svg">
<path d="M16.4206 17.9804C16.4206 20.4224 15.2806 22.1784 13.4136 22.1784C12.4386 22.1784 12.0726 21.6364 11.7236 20.3834L11.5166 19.6114C11.4156 19.2524 11.2396 18.6414 10.9896 17.7804C10.9828 17.7574 10.9727 17.7356 10.9596 17.7154L8.09363 13.2294C7.4154 12.1683 6.41473 11.3527 5.23863 10.9024L4.76563 10.7224C4.16166 10.4909 3.65863 10.0539 3.34497 9.4882C3.03131 8.92251 2.92709 8.26437 3.05063 7.62945L3.45463 5.54245C3.57312 4.93315 3.86362 4.37054 4.29176 3.92113C4.7199 3.47172 5.26779 3.15431 5.87063 3.00645L13.4986 1.13645C14.7147 0.838522 15.9992 1.03279 17.0728 1.67699C18.1464 2.32118 18.9223 3.36322 19.2316 4.57645L20.6466 10.1264C20.7688 10.6063 20.7797 11.1077 20.6786 11.5924C20.5775 12.0771 20.3669 12.5322 20.063 12.9231C19.7591 13.314 19.3699 13.6304 18.9251 13.8479C18.4804 14.0655 17.9918 14.1785 17.4966 14.1784H15.6746C16.1706 15.8114 16.4206 17.0714 16.4206 17.9804ZM4.52063 7.91545C4.46473 8.20397 4.51229 8.50295 4.65493 8.7599C4.79758 9.01684 5.02619 9.21531 5.30063 9.32045L5.77463 9.50245C7.25027 10.0675 8.50576 11.091 9.35663 12.4224L12.2236 16.9074C12.3136 17.0474 12.3826 17.2014 12.4286 17.3614L12.9806 19.2814L13.1926 20.0734C13.3326 20.5614 13.4026 20.6784 13.4126 20.6784C14.2806 20.6784 14.9196 19.6944 14.9196 17.9804C14.9196 17.0954 14.5936 15.6444 13.9356 13.6654C13.8981 13.5528 13.8879 13.4328 13.9058 13.3153C13.9237 13.1979 13.9692 13.0864 14.0387 12.9901C14.1081 12.8937 14.1994 12.8152 14.3051 12.761C14.4108 12.7068 14.5279 12.6785 14.6466 12.6784H17.4966C17.7632 12.6783 18.0262 12.6173 18.2656 12.5C18.5049 12.3828 18.7144 12.2125 18.878 12.002C19.0416 11.7916 19.1549 11.5465 19.2095 11.2856C19.264 11.0247 19.2582 10.7548 19.1926 10.4964L17.7776 4.94645C17.5658 4.11638 17.0349 3.4035 16.3002 2.96286C15.5656 2.52222 14.6866 2.38946 13.8546 2.59345L6.22663 4.46345C5.90195 4.54309 5.60687 4.71406 5.37631 4.95614C5.14575 5.19822 4.98936 5.50127 4.92563 5.82945L4.52063 7.91545Z" fill="#212121"/>
</svg>
