<svg width="48" height="48" viewBox="0 0 48 48" fill="none" xmlns="http://www.w3.org/2000/svg">
<path d="M14 24.5C14 24.1022 14.158 23.7206 14.4393 23.4393C14.7206 23.158 15.1022 23 15.5 23C15.8978 23 16.2794 23.158 16.5607 23.4393C16.842 23.7206 17 24.1022 17 24.5C17 24.8978 16.842 25.2794 16.5607 25.5607C16.2794 25.842 15.8978 26 15.5 26C15.1022 26 14.7206 25.842 14.4393 25.5607C14.158 25.2794 14 24.8978 14 24.5ZM15.5 29C15.1022 29 14.7206 29.158 14.4393 29.4393C14.158 29.7206 14 30.1022 14 30.5C14 30.8978 14.158 31.2794 14.4393 31.5607C14.7206 31.842 15.1022 32 15.5 32C15.8978 32 16.2794 31.842 16.5607 31.5607C16.842 31.2794 17 30.8978 17 30.5C17 30.1022 16.842 29.7206 16.5607 29.4393C16.2794 29.158 15.8978 29 15.5 29ZM14 36.5C14 36.1022 14.158 35.7206 14.4393 35.4393C14.7206 35.158 15.1022 35 15.5 35C15.8978 35 16.2794 35.158 16.5607 35.4393C16.842 35.7206 17 36.1022 17 36.5C17 36.8978 16.842 37.2794 16.5607 37.5607C16.2794 37.842 15.8978 38 15.5 38C15.1022 38 14.7206 37.842 14.4393 37.5607C14.158 37.2794 14 36.8978 14 36.5ZM21.5 23C21.1022 23 20.7206 23.158 20.4393 23.4393C20.158 23.7206 20 24.1022 20 24.5C20 24.8978 20.158 25.2794 20.4393 25.5607C20.7206 25.842 21.1022 26 21.5 26H32.5C32.8978 26 33.2794 25.842 33.5607 25.5607C33.842 25.2794 34 24.8978 34 24.5C34 24.1022 33.842 23.7206 33.5607 23.4393C33.2794 23.158 32.8978 23 32.5 23H21.5ZM20 30.5C20 30.1022 20.158 29.7206 20.4393 29.4393C20.7206 29.158 21.1022 29 21.5 29H32.5C32.8978 29 33.2794 29.158 33.5607 29.4393C33.842 29.7206 34 30.1022 34 30.5C34 30.8978 33.842 31.2794 33.5607 31.5607C33.2794 31.842 32.8978 32 32.5 32H21.5C21.1022 32 20.7206 31.842 20.4393 31.5607C20.158 31.2794 20 30.8978 20 30.5ZM21.5 35C21.1022 35 20.7206 35.158 20.4393 35.4393C20.158 35.7206 20 36.1022 20 36.5C20 36.8978 20.158 37.2794 20.4393 37.5607C20.7206 37.842 21.1022 38 21.5 38H32.5C32.8978 38 33.2794 37.842 33.5607 37.5607C33.842 37.2794 34 36.8978 34 36.5C34 36.1022 33.842 35.7206 33.5607 35.4393C33.2794 35.158 32.8978 35 32.5 35H21.5ZM38.828 16.828L27.17 5.172C27.1391 5.14326 27.1063 5.11654 27.072 5.092C27.0473 5.07291 27.0232 5.05289 27 5.032C26.8624 4.90214 26.716 4.78186 26.562 4.672C26.5108 4.63896 26.4573 4.60956 26.402 4.584L26.306 4.536L26.206 4.478C26.098 4.416 25.988 4.352 25.874 4.304C25.4757 4.14493 25.0542 4.05171 24.626 4.028C24.586 4.026 24.546 4.02 24.508 4.014C24.4537 4.00562 24.3989 4.00094 24.344 4H12C10.9391 4 9.92172 4.42143 9.17157 5.17157C8.42143 5.92172 8 6.93913 8 8V40C8 41.0609 8.42143 42.0783 9.17157 42.8284C9.92172 43.5786 10.9391 44 12 44H36C37.0609 44 38.0783 43.5786 38.8284 42.8284C39.5786 42.0783 40 41.0609 40 40V19.656C39.9998 18.5952 39.5782 17.578 38.828 16.828ZM37 40C37 40.2652 36.8946 40.5196 36.7071 40.7071C36.5196 40.8946 36.2652 41 36 41H12C11.7348 41 11.4804 40.8946 11.2929 40.7071C11.1054 40.5196 11 40.2652 11 40V8C11 7.73478 11.1054 7.48043 11.2929 7.29289C11.4804 7.10536 11.7348 7 12 7H24V16C24 17.0609 24.4214 18.0783 25.1716 18.8284C25.9217 19.5786 26.9391 20 28 20H37V40ZM27 9.242L34.756 17H28C27.7348 17 27.4804 16.8946 27.2929 16.7071C27.1054 16.5196 27 16.2652 27 16V9.242Z" fill="url(#paint0_linear_315_20015)"/>
<defs>
<linearGradient id="paint0_linear_315_20015" x1="10.1" y1="38.5" x2="46.0169" y2="32.0838" gradientUnits="userSpaceOnUse">
<stop stop-color="#0C44AC"/>
<stop offset="1" stop-color="#548BF3"/>
</linearGradient>
</defs>
</svg>
