<svg width="48" height="48" viewBox="0 0 48 48" fill="none" xmlns="http://www.w3.org/2000/svg">
<path d="M29.9988 10C33.6715 9.99821 37.1978 11.4397 39.8175 14.0136C42.4372 16.5876 43.9406 20.0879 44.0036 23.76C44.0666 27.4321 42.6841 30.9819 40.1541 33.6441C37.6242 36.3064 34.1494 37.8679 30.4788 37.992L29.9988 38H18.0068C14.3342 38.0018 10.8079 36.5603 8.18817 33.9864C5.56843 31.4124 4.06503 27.9121 4.00206 24.24C3.93909 20.5679 5.3216 17.0181 7.85156 14.3559C10.3815 11.6936 13.8563 10.1321 17.5268 10.008L18.0048 10H29.9968H29.9988ZM29.9988 13H18.0068C15.1237 12.9939 12.3535 14.12 10.2923 16.1359C8.23112 18.1518 7.04379 20.8964 6.98586 23.7789C6.92793 26.6615 8.00401 29.4515 9.98253 31.5486C11.961 33.6457 14.6838 34.8822 17.5648 34.992L18.0068 35H29.9988C32.8819 35.0061 35.6522 33.88 37.7134 31.8641C39.7745 29.8482 40.9619 27.1036 41.0198 24.2211C41.0777 21.3385 40.0017 18.5485 38.0231 16.4514C36.0446 14.3543 33.3219 13.1178 30.4408 13.008L29.9988 13ZM16.0028 18C16.4007 18 16.7822 18.158 17.0635 18.4393C17.3448 18.7206 17.5028 19.1022 17.5028 19.5V22.496H20.5028C20.9007 22.496 21.2822 22.654 21.5635 22.9353C21.8448 23.2166 22.0028 23.5982 22.0028 23.996C22.0028 24.3938 21.8448 24.7754 21.5635 25.0567C21.2822 25.338 20.9007 25.496 20.5028 25.496H17.5028V28.5C17.5028 28.8978 17.3448 29.2794 17.0635 29.5607C16.7822 29.842 16.4007 30 16.0028 30C15.605 30 15.2235 29.842 14.9422 29.5607C14.6609 29.2794 14.5028 28.8978 14.5028 28.5V25.496H11.5028C11.3059 25.496 11.1108 25.4572 10.9288 25.3818C10.7468 25.3064 10.5815 25.1959 10.4422 25.0567C10.3029 24.9174 10.1924 24.752 10.117 24.57C10.0416 24.388 10.0028 24.193 10.0028 23.996C10.0028 23.799 10.0416 23.604 10.117 23.422C10.1924 23.24 10.3029 23.0746 10.4422 22.9353C10.5815 22.7961 10.7468 22.6856 10.9288 22.6102C11.1108 22.5348 11.3059 22.496 11.5028 22.496H14.5028V19.5C14.5028 19.1022 14.6609 18.7206 14.9422 18.4393C15.2235 18.158 15.605 18 16.0028 18ZM29.5028 25C30.1659 25 30.8018 25.2634 31.2706 25.7322C31.7394 26.2011 32.0028 26.837 32.0028 27.5C32.0028 28.163 31.7394 28.7989 31.2706 29.2678C30.8018 29.7366 30.1659 30 29.5028 30C28.8398 30 28.2039 29.7366 27.7351 29.2678C27.2662 28.7989 27.0028 28.163 27.0028 27.5C27.0028 26.837 27.2662 26.2011 27.7351 25.7322C28.2039 25.2634 28.8398 25 29.5028 25ZM33.5028 18C34.1659 18 34.8018 18.2634 35.2706 18.7322C35.7394 19.2011 36.0028 19.837 36.0028 20.5C36.0028 21.163 35.7394 21.7989 35.2706 22.2678C34.8018 22.7366 34.1659 23 33.5028 23C32.8398 23 32.2039 22.7366 31.7351 22.2678C31.2662 21.7989 31.0028 21.163 31.0028 20.5C31.0028 19.837 31.2662 19.2011 31.7351 18.7322C32.2039 18.2634 32.8398 18 33.5028 18Z" fill="url(#paint0_linear_315_20022)"/>
<defs>
<linearGradient id="paint0_linear_315_20022" x1="6.62537" y1="34.15" x2="48.68" y2="20.7326" gradientUnits="userSpaceOnUse">
<stop stop-color="#0C44AC"/>
<stop offset="1" stop-color="#548BF3"/>
</linearGradient>
</defs>
</svg>
