<svg width="56" height="56" viewBox="0 0 56 56" fill="none" xmlns="http://www.w3.org/2000/svg">
<path d="M28.0003 43.166C27.5362 43.166 27.0911 43.3504 26.7629 43.6786C26.4347 44.0068 26.2503 44.4519 26.2503 44.916C26.2503 45.3801 26.4347 45.8253 26.7629 46.1535C27.0911 46.4816 27.5362 46.666 28.0003 46.666C28.4645 46.666 28.9096 46.4816 29.2378 46.1535C29.566 45.8253 29.7503 45.3801 29.7503 44.916C29.7503 44.4519 29.566 44.0068 29.2378 43.6786C28.9096 43.3504 28.4645 43.166 28.0003 43.166ZM40.8337 23.3327V20.9993C40.8337 17.5957 39.4816 14.3315 37.0749 11.9248C34.6681 9.5181 31.4039 8.16602 28.0003 8.16602C24.5967 8.16602 21.3325 9.5181 18.9258 11.9248C16.5191 14.3315 15.167 17.5957 15.167 20.9993V23.3327H21.0003C21.6192 23.3327 22.2127 23.5785 22.6502 24.0161C23.0878 24.4537 23.3337 25.0472 23.3337 25.666V34.9993C23.3337 35.6182 23.0878 36.2117 22.6502 36.6493C22.2127 37.0868 21.6192 37.3327 21.0003 37.3327H15.167V37.916C15.1668 39.2463 15.6717 40.5271 16.5795 41.4994C17.4874 42.4718 18.7305 43.0633 20.0577 43.1544L20.417 43.166H23.049C23.4618 41.9977 24.2744 41.013 25.3431 40.386C26.4118 39.7589 27.6677 39.5298 28.889 39.7393C30.1102 39.9487 31.2181 40.5831 32.0168 41.5304C32.8155 42.4778 33.2535 43.6769 33.2535 44.916C33.2535 46.1551 32.8155 47.3543 32.0168 48.3016C31.2181 49.2489 30.1102 49.8833 28.889 50.0928C27.6677 50.3022 26.4118 50.0731 25.3431 49.4461C24.2744 48.819 23.4618 47.8343 23.049 46.666H20.417C18.177 46.6662 16.0222 45.8073 14.3966 44.2663C12.7709 42.7253 11.7981 40.6195 11.6787 38.3827L11.667 37.916V20.9993C11.667 16.6675 13.3878 12.513 16.4509 9.44994C19.514 6.38684 23.6685 4.66602 28.0003 4.66602C32.3322 4.66602 36.4866 6.38684 39.5497 9.44994C42.6128 12.513 44.3337 16.6675 44.3337 20.9993V32.666C44.334 33.8434 43.8894 34.9773 43.0888 35.8406C42.2883 36.7039 41.191 37.2327 40.017 37.321L39.667 37.3327H35.0003C34.4288 37.3326 33.8772 37.1228 33.4501 36.743C33.023 36.3632 32.7502 35.8399 32.6833 35.2723L32.667 34.9993V25.666C32.6671 25.0945 32.8769 24.5429 33.2567 24.1158C33.6364 23.6887 34.1597 23.4159 34.7273 23.349L35.0003 23.3327H40.8337ZM19.8337 26.8327H15.167V33.8327H19.8337V26.8327ZM40.8337 26.8327H36.167V33.8327H39.667C39.9401 33.8328 40.2045 33.7371 40.4143 33.5623C40.624 33.3875 40.7658 33.1446 40.815 32.876L40.8337 32.666V26.8327Z" fill="url(#paint0_linear_320_22746)"/>
<defs>
<linearGradient id="paint0_linear_320_22746" x1="13.8107" y1="43.9118" x2="50.698" y2="37.9984" gradientUnits="userSpaceOnUse">
<stop stop-color="#0C44AC"/>
<stop offset="1" stop-color="#548BF3"/>
</linearGradient>
</defs>
</svg>
