<svg width="24" height="24" viewBox="0 0 24 24" fill="none" xmlns="http://www.w3.org/2000/svg">
<path d="M16.4204 5.199C16.4204 2.757 15.2804 1 13.4134 1C12.3874 1 12.0354 1.602 11.6674 3C11.5924 3.289 11.5554 3.43 11.5164 3.568C11.4154 3.927 11.2394 4.538 10.9894 5.399C10.9825 5.42199 10.9724 5.44388 10.9594 5.464L8.09438 9.95C7.41605 11.0108 6.41537 11.8261 5.23938 12.276L4.76638 12.457C4.16242 12.6883 3.65932 13.1251 3.34549 13.6906C3.03165 14.2561 2.92716 14.9141 3.05038 15.549L3.45438 17.635C3.5726 18.2448 3.86309 18.8079 4.29145 19.2577C4.71981 19.7075 5.26809 20.0252 5.87138 20.173L13.4994 22.043C14.7155 22.3409 16 22.1467 17.0736 21.5025C18.1472 20.8583 18.923 19.8162 19.2324 18.603L20.6474 13.053C20.7696 12.5732 20.7805 12.0718 20.6793 11.5871C20.5782 11.1024 20.3676 10.6472 20.0638 10.2563C19.7599 9.8654 19.3707 9.54909 18.9259 9.33153C18.4811 9.11398 17.9925 9.00092 17.4974 9.001H15.6754C16.1714 7.368 16.4204 6.108 16.4204 5.199ZM4.52038 15.264C4.46423 14.9753 4.51166 14.6761 4.65432 14.4189C4.79698 14.1618 5.02574 13.9632 5.30038 13.858L5.77438 13.678C7.25002 13.1129 8.50551 12.0895 9.35638 10.758L12.2234 6.272C12.3134 6.131 12.3824 5.978 12.4284 5.817C12.6804 4.952 12.8564 4.338 12.9584 3.974C13.0024 3.821 13.0434 3.666 13.1174 3.382C13.3074 2.66 13.4004 2.5 13.4124 2.5C14.2804 2.5 14.9194 3.484 14.9194 5.2C14.9194 6.084 14.5934 7.535 13.9354 9.514C13.8978 9.62669 13.8876 9.74668 13.9055 9.8641C13.9234 9.98152 13.969 10.093 14.0384 10.1894C14.1078 10.2857 14.1991 10.3643 14.3048 10.4184C14.4105 10.4726 14.5276 10.5009 14.6464 10.501H17.4964C17.7629 10.5012 18.0259 10.5622 18.2653 10.6794C18.5047 10.7966 18.7142 10.967 18.8777 11.1774C19.0413 11.3879 19.1547 11.6329 19.2092 11.8938C19.2637 12.1547 19.258 12.4247 19.1924 12.683L17.7774 18.233C17.5656 19.0631 17.0346 19.7759 16.3 20.2166C15.5653 20.6572 14.6864 20.79 13.8544 20.586L6.22638 18.716C5.9017 18.6364 5.60662 18.4654 5.37606 18.2233C5.1455 17.9812 4.98911 17.6782 4.92538 17.35L4.52038 15.264Z" fill="#212121"/>
</svg>
