<svg width="171" height="36" viewBox="0 0 171 36" fill="none"
    xmlns="http://www.w3.org/2000/svg">
    <g clip-path="url(#clip0_2055_14860)">
        <path d="M30.161 13.3539L24.8173 22.607L17.1504 36.0001L12.5041 27.9339L12.4648 27.8551L2.66602 10.8957L7.28414 8.22949L17.1223 25.2676L23.1354 14.8557H29.261L30.161 13.3539Z" fill="url(#paint0_linear_2055_14860)"/>
        <path d="M17.1504 36.0001L12.5041 27.9339L12.4648 27.8551L2.66602 10.8957L7.28414 8.22949L20.2273 30.6339" fill="url(#paint1_linear_2055_14860)"/>
        <path d="M30.2738 3.94875L27.6075 8.56687L22.005 5.3325H12.3075L2.66625 10.8956L0 6.2775L10.8787 0H23.4338L23.4394 0.005625L30.2738 3.94875Z" fill="url(#paint2_linear_2055_14860)"/>
        <path d="M29.2608 14.8559H16.7002V9.52344H24.2827L25.7339 10.3559L30.3521 13.0109" fill="url(#paint3_linear_2055_14860)"/>
    </g>
    <g clip-path="url(#clip1_2055_14860)">
        <path d="M46.749 16.3168H46.5487C46.4151 16.6451 46.2482 16.9567 46.059 17.2572C45.8643 17.5576 45.625 17.8192 45.3468 18.0473C45.063 18.2754 44.7347 18.459 44.3508 18.5926C43.9724 18.7261 43.544 18.7929 43.0655 18.7929C42.3087 18.7929 41.6299 18.6148 41.0456 18.2587C40.4558 17.9026 39.9606 17.3796 39.56 16.6952C39.1594 16.0108 38.8589 15.1761 38.653 14.1913C38.4527 13.2064 38.3525 12.0991 38.3525 10.8638C38.3525 8.21527 38.8366 6.18988 39.8048 4.78212C40.773 3.37437 42.2698 2.66771 44.2952 2.66771C45.0964 2.66771 45.8086 2.77343 46.4151 2.99044C47.0272 3.20744 47.5502 3.51348 47.9898 3.90854C48.4294 4.3036 48.7911 4.77656 49.0748 5.32742C49.3586 5.87828 49.5812 6.49035 49.7426 7.15806L46.6154 7.9148C46.5264 7.58651 46.4263 7.26934 46.315 6.96331C46.2037 6.65728 46.059 6.38463 45.881 6.15093C45.7029 5.91167 45.4803 5.72248 45.2133 5.58338C44.9462 5.44427 44.6179 5.37194 44.2284 5.37194C43.3771 5.37194 42.7817 5.72248 42.4311 6.42358C42.0806 7.12467 41.9081 8.10398 41.9081 9.37263V11.9211C41.9081 13.1841 42.0973 14.1968 42.4756 14.9591C42.854 15.7159 43.5273 16.0998 44.4955 16.0998C45.2522 16.0998 45.8198 15.8772 46.1926 15.4321C46.5654 14.987 46.749 14.4138 46.749 13.7127V12.5721H44.0893V10.2073H49.737V18.5369H46.7434V16.3279L46.749 16.3168Z" fill="#ECF2FE"/>
        <path d="M61.8448 18.5258C61.1604 18.5258 60.6095 18.3533 60.1922 18.0028C59.7749 17.6522 59.5301 17.1515 59.4577 16.4949H59.3465C59.135 17.2572 58.7233 17.8303 58.1056 18.2142C57.488 18.6037 56.7313 18.7929 55.841 18.7929C54.7226 18.7929 53.8267 18.4924 53.1479 17.8859C52.469 17.285 52.1296 16.4392 52.1296 15.3486C52.1296 14.1412 52.5692 13.2509 53.4483 12.6667C54.3275 12.088 55.6128 11.7931 57.3099 11.7931H59.1628V11.2144C59.1628 10.53 59.0015 10.0125 58.6843 9.66197C58.3616 9.31142 57.8218 9.13893 57.0651 9.13893C56.364 9.13893 55.802 9.27247 55.368 9.53956C54.934 9.80664 54.5668 10.1572 54.2496 10.5912L52.4412 8.98313C52.8307 8.32655 53.4372 7.78682 54.2607 7.36394C55.0842 6.94105 56.147 6.72961 57.4435 6.72961C59.0237 6.72961 60.2534 7.09129 61.1381 7.81464C62.0229 8.53799 62.468 9.62859 62.468 11.0864V16.1332H63.7422V18.5203H61.8448V18.5258ZM57.0874 16.6284C57.666 16.6284 58.1613 16.4893 58.5619 16.2055C58.9625 15.9218 59.1628 15.5156 59.1628 14.9758V13.5903H57.399C56.0413 13.5903 55.368 14.0466 55.368 14.9536V15.3987C55.368 15.7993 55.5238 16.1054 55.8354 16.3168C56.147 16.5227 56.5643 16.6284 57.0874 16.6284Z" fill="#ECF2FE"/>
        <path d="M65.0387 18.5258V7.00226H67.6984V8.69936H67.8542C68.0322 8.16519 68.2882 7.70336 68.6221 7.31386C68.9559 6.92436 69.4289 6.73518 70.0409 6.73518C71.1594 6.73518 71.8438 7.39176 72.0941 8.69936H72.2277C72.3167 8.43227 72.428 8.17632 72.5615 7.94262C72.6951 7.70336 72.862 7.49748 73.0512 7.31942C73.2459 7.14137 73.4741 6.9967 73.7412 6.89654C74.0082 6.79082 74.3198 6.74074 74.6815 6.74074C76.2896 6.74074 77.0908 7.92593 77.0908 10.2907V18.5314H74.4311V10.619C74.4311 10.0849 74.3365 9.70649 74.1529 9.48948C73.9637 9.27247 73.7245 9.16675 73.4296 9.16675C73.1347 9.16675 72.9065 9.26135 72.7062 9.44497C72.5059 9.62859 72.4057 9.91793 72.4057 10.3019V18.5203H69.7238V10.619C69.7238 10.0849 69.6403 9.70649 69.4678 9.48948C69.2953 9.27247 69.0616 9.16675 68.7667 9.16675C68.4718 9.16675 68.2159 9.26135 68.0044 9.44497C67.7985 9.62859 67.6928 9.91793 67.6928 10.3019V18.5203H65.0331L65.0387 18.5258Z" fill="#ECF2FE"/>
        <path d="M84.7806 18.7929C82.8443 18.7929 81.3809 18.2587 80.3793 17.1848C79.3778 16.1109 78.8825 14.6531 78.8825 12.8058C78.8825 11.8654 79.0105 11.0252 79.272 10.2685C79.5336 9.5173 79.9064 8.87741 80.3904 8.34881C80.8745 7.82021 81.4643 7.41958 82.1543 7.14137C82.8443 6.86872 83.6233 6.72961 84.4857 6.72961C85.3482 6.72961 86.1216 6.86872 86.806 7.14137C87.4904 7.41958 88.0691 7.80908 88.5476 8.31542C89.0262 8.82177 89.3934 9.43384 89.6549 10.1572C89.9164 10.8805 90.0444 11.6874 90.0444 12.5776V13.5625H82.1599V13.7628C82.1599 14.5084 82.388 15.1094 82.8498 15.5601C83.3117 16.0163 83.9905 16.2389 84.8808 16.2389C85.5652 16.2389 86.155 16.1109 86.6447 15.8494C87.1343 15.5879 87.5628 15.2429 87.9189 14.8089L89.705 16.7508C89.2599 17.3017 88.6311 17.7802 87.8298 18.1808C87.023 18.5815 86.0048 18.7818 84.7695 18.7818L84.7806 18.7929ZM84.5136 9.09998C83.8013 9.09998 83.2282 9.31699 82.8053 9.75656C82.3824 10.1961 82.171 10.786 82.171 11.5316V11.7096H86.8172V11.5316C86.8172 10.7748 86.6113 10.1794 86.2051 9.74544C85.7933 9.31142 85.2313 9.09998 84.5191 9.09998H84.5136Z" fill="#ECF2FE"/>
        <path d="M95.5029 18.5258L91.3743 2.94036H95.1023L96.933 10.8694L97.8511 15.3598H98.0291L98.9695 10.8694L100.822 2.94036H104.372L100.244 18.5314H95.5085L95.5029 18.5258Z" fill="#ECF2FE"/>
        <path d="M111.584 18.7929C109.647 18.7929 108.184 18.2587 107.182 17.1848C106.186 16.1109 105.686 14.6531 105.686 12.8058C105.686 11.8654 105.813 11.0252 106.075 10.2685C106.337 9.5173 106.709 8.87741 107.193 8.34881C107.678 7.82021 108.267 7.41958 108.957 7.14137C109.647 6.86872 110.426 6.72961 111.289 6.72961C112.151 6.72961 112.925 6.86872 113.609 7.14137C114.293 7.41958 114.872 7.80908 115.351 8.31542C115.829 8.82177 116.196 9.43384 116.458 10.1572C116.719 10.8805 116.847 11.6874 116.847 12.5776V13.5625H108.963V13.7628C108.963 14.5084 109.191 15.1094 109.653 15.5601C110.115 16.0163 110.794 16.2389 111.684 16.2389C112.368 16.2389 112.958 16.1109 113.448 15.8494C113.937 15.5879 114.366 15.2429 114.722 14.8089L116.508 16.7508C116.063 17.3017 115.434 17.7802 114.633 18.1808C113.826 18.5815 112.808 18.7818 111.572 18.7818L111.584 18.7929ZM111.317 9.09998C110.604 9.09998 110.031 9.31699 109.608 9.75656C109.185 10.1961 108.974 10.786 108.974 11.5316V11.7096H113.62V11.5316C113.62 10.7748 113.414 10.1794 113.008 9.74544C112.596 9.31142 112.034 9.09998 111.322 9.09998H111.317Z" fill="#ECF2FE"/>
        <path d="M119.424 18.5258V7.00226H122.729V9.09998H122.862C122.996 8.77169 123.163 8.46566 123.352 8.18188C123.547 7.8981 123.78 7.64771 124.059 7.43627C124.331 7.21927 124.654 7.04677 125.021 6.92436C125.389 6.79638 125.8 6.73518 126.262 6.73518C126.813 6.73518 127.319 6.82977 127.781 7.01339C128.243 7.20257 128.638 7.48079 128.966 7.85359C129.295 8.2264 129.551 8.68266 129.734 9.21683C129.923 9.751 130.012 10.3686 130.012 11.0697V18.5314H126.707V11.5204C126.707 10.0292 126.062 9.28917 124.765 9.28917C124.509 9.28917 124.265 9.32255 124.02 9.38932C123.775 9.45609 123.552 9.56182 123.363 9.70092C123.174 9.84003 123.018 10.0181 122.907 10.224C122.796 10.4298 122.74 10.6802 122.74 10.9584V18.5314H119.435L119.424 18.5258Z" fill="#ECF2FE"/>
        <path d="M140.15 16.4058H139.995C139.694 17.1125 139.282 17.6856 138.754 18.1308C138.225 18.5759 137.502 18.7929 136.578 18.7929C135.938 18.7929 135.354 18.6761 134.825 18.4368C134.297 18.1975 133.841 17.8359 133.462 17.3406C133.084 16.851 132.783 16.2222 132.566 15.4655C132.349 14.7087 132.244 13.8073 132.244 12.7613C132.244 11.7152 132.349 10.8193 132.566 10.057C132.783 9.3003 133.078 8.67154 133.462 8.18188C133.841 7.69223 134.297 7.32499 134.825 7.08572C135.354 6.84646 135.938 6.72961 136.578 6.72961C137.04 6.72961 137.446 6.79082 137.808 6.90767C138.164 7.03008 138.481 7.19144 138.759 7.40289C139.032 7.61433 139.271 7.86472 139.472 8.15962C139.672 8.45453 139.85 8.77169 139.995 9.11668H140.15V2H143.456V18.5258H140.15V16.4058ZM138.008 16.2055C138.587 16.2055 139.093 16.0664 139.516 15.7826C139.939 15.5044 140.15 15.0593 140.15 14.4528V11.0809C140.15 10.4744 139.939 10.0292 139.516 9.751C139.093 9.47279 138.587 9.32812 138.008 9.32812C137.263 9.32812 136.69 9.55625 136.289 10.007C135.888 10.4577 135.688 11.0809 135.688 11.8821V13.6571C135.688 14.4584 135.888 15.0816 136.289 15.5323C136.69 15.983 137.263 16.2111 138.008 16.2111V16.2055Z" fill="#ECF2FE"/>
        <path d="M151.474 18.7929C150.578 18.7929 149.777 18.6538 149.059 18.3812C148.347 18.1085 147.74 17.7079 147.239 17.1848C146.739 16.6618 146.355 16.033 146.088 15.2874C145.82 14.5418 145.687 13.7016 145.687 12.7613C145.687 11.8209 145.82 10.9807 146.088 10.2351C146.355 9.48948 146.739 8.86072 147.239 8.33768C147.74 7.81464 148.347 7.41958 149.059 7.14137C149.771 6.86872 150.578 6.72961 151.474 6.72961C152.37 6.72961 153.171 6.86872 153.889 7.14137C154.601 7.41958 155.207 7.81464 155.708 8.33768C156.209 8.86072 156.593 9.48948 156.86 10.2351C157.127 10.9807 157.261 11.8209 157.261 12.7613C157.261 13.7016 157.127 14.5418 156.86 15.2874C156.593 16.033 156.209 16.6674 155.708 17.1848C155.207 17.7079 154.601 18.1029 153.889 18.3812C153.176 18.6538 152.37 18.7929 151.474 18.7929ZM151.474 16.3335C152.219 16.3335 152.798 16.1054 153.215 15.6435C153.633 15.1817 153.839 14.5251 153.839 13.6794V11.8487C153.839 10.9974 153.627 10.3464 153.215 9.88454C152.798 9.42271 152.219 9.19458 151.474 9.19458C150.728 9.19458 150.149 9.42827 149.732 9.88454C149.315 10.3464 149.109 11.003 149.109 11.8487V13.6794C149.109 14.5307 149.315 15.1817 149.732 15.6435C150.149 16.1054 150.728 16.3335 151.474 16.3335Z" fill="#ECF2FE"/>
        <path d="M159.826 15.9384H162.485V9.5952H159.826V7.00226H165.791V10.2629H165.946C166.052 9.84559 166.197 9.4394 166.38 9.04434C166.564 8.64928 166.803 8.29873 167.093 7.9927C167.382 7.68666 167.738 7.4474 168.155 7.26934C168.573 7.09129 169.062 7.00226 169.63 7.00226H170.726V10.0403H168.267C167.449 10.0403 166.831 10.2796 166.414 10.7637C165.996 11.2478 165.791 11.8376 165.791 12.5331V15.9384H169.585V18.5314H159.826V15.9384Z" fill="#ECF2FE"/>
        <path d="M43.1545 32.4868C43.1545 33.0098 42.943 33.3882 42.509 33.633C42.0806 33.8778 41.4518 34.0003 40.6172 34.0003C39.7826 34.0003 39.2317 33.8834 38.8811 33.6608C38.5306 33.4271 38.3525 33.11 38.3525 32.7038C38.3525 32.4089 38.4304 32.1752 38.5918 32.0083C38.7532 31.8358 38.9757 31.7078 39.2651 31.6188V31.5409C38.9368 31.4129 38.7699 31.1792 38.7699 30.8398C38.7699 30.5838 38.8589 30.3891 39.0314 30.2499C39.2039 30.1108 39.4209 30.0107 39.6768 29.9439V29.905C39.3708 29.7714 39.1315 29.5711 38.959 29.304C38.7866 29.0369 38.7031 28.7142 38.7031 28.3414C38.7031 28.0799 38.7476 27.8406 38.8366 27.6236C38.9257 27.4066 39.0536 27.2174 39.2206 27.0616C39.3819 26.9058 39.5822 26.7834 39.8215 26.7C40.0552 26.6165 40.3167 26.572 40.6061 26.572C41.0234 26.572 41.3739 26.661 41.6688 26.8335V26.6221C41.6688 26.4607 41.7078 26.3327 41.7857 26.2326C41.8636 26.138 41.986 26.0879 42.1641 26.0879H43.1767V26.5887H41.9916V27.0616C42.1585 27.2174 42.2865 27.4011 42.3811 27.6125C42.4701 27.8295 42.5146 28.0688 42.5146 28.3358C42.5146 28.6029 42.4701 28.8366 42.3811 29.0481C42.292 29.2595 42.1641 29.4487 41.9916 29.6045C41.8246 29.7603 41.6243 29.8827 41.3906 29.9662C41.1569 30.0496 40.8954 30.0942 40.6061 30.0942C40.5115 30.0942 40.4224 30.0942 40.3445 30.083C40.2666 30.0719 40.1776 30.0608 40.083 30.0441C39.866 30.0997 39.6824 30.1776 39.521 30.2889C39.3597 30.4002 39.2818 30.5449 39.2818 30.7229C39.2818 31.0289 39.5655 31.1792 40.1275 31.1792H41.3628C41.9916 31.1792 42.4478 31.296 42.7316 31.5353C43.0154 31.7746 43.1601 32.0917 43.1601 32.4923L43.1545 32.4868ZM42.6148 32.5035C42.6148 32.2531 42.5202 32.0583 42.3365 31.9137C42.1529 31.769 41.8246 31.6967 41.3572 31.6967H39.6601C39.4264 31.769 39.2428 31.8803 39.1148 32.0249C38.9869 32.1696 38.9201 32.3588 38.9201 32.5925C38.9201 32.8651 39.0314 33.0933 39.2595 33.2713C39.4876 33.4494 39.8215 33.5384 40.2778 33.5384H40.951C41.4685 33.5384 41.8747 33.455 42.1752 33.2825C42.4756 33.11 42.6203 32.854 42.6203 32.5035H42.6148ZM40.6061 29.6379C41.0401 29.6379 41.3684 29.5322 41.5854 29.3152C41.8024 29.1037 41.9137 28.8255 41.9137 28.4916V28.1578C41.9137 27.8184 41.8024 27.5402 41.5854 27.3287C41.3684 27.1173 41.0401 27.0116 40.6061 27.0116C40.172 27.0116 39.8549 27.1173 39.6379 27.3287C39.4209 27.5402 39.3096 27.8184 39.3096 28.1578V28.4916C39.3096 28.8255 39.4209 29.1037 39.6434 29.3152C39.866 29.5322 40.1887 29.6379 40.6061 29.6379Z" fill="#ECF2FE"/>
        <path d="M49.9202 31.8691C49.6865 31.8691 49.5196 31.8135 49.4194 31.6966C49.3192 31.5798 49.2636 31.4296 49.2469 31.2348V31.0512H49.1968C49.08 31.3238 48.8964 31.552 48.6348 31.7245C48.3733 31.897 48.0172 31.986 47.5665 31.986C47.0268 31.986 46.5983 31.8524 46.2867 31.5909C45.9751 31.3238 45.8193 30.951 45.8193 30.4725C45.8193 30.2444 45.8583 30.0385 45.9362 29.8549C46.0141 29.6713 46.1365 29.5155 46.309 29.3875C46.4815 29.2595 46.6985 29.1593 46.9656 29.0926C47.2327 29.0202 47.5609 28.9869 47.9504 28.9869H49.2191V28.3581C49.2191 27.9241 49.1022 27.6014 48.863 27.3899C48.6237 27.1785 48.2954 27.0672 47.8725 27.0672C47.1603 27.0672 46.6651 27.351 46.3869 27.913L45.9974 27.6292C46.1309 27.3287 46.3591 27.0728 46.6762 26.8724C46.9934 26.6721 47.4051 26.5664 47.9059 26.5664C48.4957 26.5664 48.9576 26.7166 49.2914 27.0227C49.6253 27.3287 49.7922 27.7516 49.7922 28.2969V31.3739H50.5656V31.8747H49.9202V31.8691ZM47.6611 31.5075C47.8837 31.5075 48.084 31.4796 48.2732 31.4296C48.4624 31.3739 48.6237 31.3016 48.7628 31.2014C48.9019 31.1013 49.0132 30.9844 49.0967 30.8453C49.1746 30.7062 49.2191 30.5448 49.2191 30.3724V29.4153H47.9504C47.4051 29.4153 47.0156 29.4988 46.782 29.6601C46.5427 29.8271 46.4258 30.0496 46.4258 30.3278V30.5894C46.4258 30.8898 46.5371 31.118 46.7597 31.2738C46.9823 31.4296 47.2827 31.5075 47.6611 31.5075Z" fill="#ECF2FE"/>
        <path d="M53.2478 31.8688V26.683H53.7819V27.2839H53.8097C53.8876 27.0836 54.0101 26.9111 54.1659 26.772C54.3217 26.6329 54.5442 26.5605 54.8336 26.5605C55.1229 26.5605 55.3566 26.6329 55.518 26.7776C55.6793 26.9222 55.7795 27.1225 55.8184 27.3785H55.8407C55.9353 27.1448 56.0688 26.95 56.2413 26.7942C56.4138 26.6384 56.6586 26.5605 56.9647 26.5605C57.3653 26.5605 57.6435 26.6941 57.8049 26.9556C57.9662 27.2171 58.0386 27.6066 58.0386 28.1074V31.8633H57.5044V28.1964C57.5044 27.7736 57.4432 27.4786 57.3263 27.3006C57.2095 27.1281 57.0259 27.0391 56.7699 27.0391C56.514 27.0391 56.3248 27.1225 56.1579 27.2839C55.9909 27.4508 55.9075 27.6957 55.9075 28.0351V31.8633H55.3733V28.1964C55.3733 27.7736 55.3121 27.4786 55.1952 27.3006C55.0784 27.1281 54.8948 27.0391 54.6388 27.0391C54.3829 27.0391 54.1937 27.1225 54.0267 27.2839C53.8598 27.4508 53.7764 27.6957 53.7764 28.0351V31.8633H53.2422L53.2478 31.8688Z" fill="#ECF2FE"/>
        <path d="M63.2363 31.9857C62.513 31.9857 61.9454 31.752 61.5336 31.279C61.1219 30.8061 60.916 30.1439 60.916 29.287C60.916 28.8586 60.9717 28.4746 61.0774 28.1352C61.1831 27.7958 61.3389 27.512 61.5336 27.2783C61.7284 27.0446 61.9732 26.8721 62.2514 26.7442C62.5296 26.6162 62.8468 26.5605 63.1862 26.5605C63.5256 26.5605 63.8484 26.6218 64.121 26.7442C64.3937 26.8666 64.6274 27.0446 64.8221 27.2728C65.0113 27.5009 65.156 27.7736 65.2617 28.0852C65.3619 28.4023 65.4119 28.7473 65.4119 29.1312V29.3816H61.5225V29.632C61.5225 30.1884 61.6728 30.6336 61.9732 30.973C62.2737 31.3124 62.6966 31.4793 63.2419 31.4793C63.6258 31.4793 63.9485 31.3903 64.2212 31.2178C64.4938 31.0453 64.6997 30.7838 64.8499 30.4444L65.284 30.717C65.1282 31.101 64.8778 31.407 64.5328 31.6351C64.1822 31.8688 63.7538 31.9801 63.2474 31.9801L63.2363 31.9857ZM63.1862 27.0391C62.9303 27.0391 62.7021 27.0836 62.4963 27.1726C62.2904 27.2616 62.1179 27.3896 61.9732 27.551C61.8286 27.7123 61.7173 27.9071 61.6394 28.1352C61.5615 28.3634 61.517 28.6138 61.517 28.8864V28.9476H64.7943V28.8697C64.7943 28.3077 64.6496 27.8626 64.3659 27.5343C64.0821 27.206 63.687 27.0391 63.1862 27.0391Z" fill="#ECF2FE"/>
        <path d="M77.831 31.8695L75.9336 26.6836H76.5178L78.1871 31.3687H78.2261L79.8842 26.6836H80.4573L78.5599 31.8695H77.8366H77.831Z" fill="#ECF2FE"/>
        <path d="M85.7881 31.9857C85.0647 31.9857 84.4972 31.752 84.0854 31.279C83.6737 30.8061 83.4678 30.1439 83.4678 29.287C83.4678 28.8586 83.5234 28.4746 83.6291 28.1352C83.7349 27.7958 83.8907 27.512 84.0854 27.2783C84.2802 27.0446 84.525 26.8721 84.8032 26.7442C85.0814 26.6162 85.3986 26.5605 85.738 26.5605C86.0774 26.5605 86.4001 26.6218 86.6728 26.7442C86.9454 26.8666 87.1791 27.0446 87.3739 27.2728C87.5631 27.5009 87.7077 27.7736 87.8135 28.0852C87.9136 28.4023 87.9637 28.7473 87.9637 29.1312V29.3816H84.0743V29.632C84.0743 30.1884 84.2245 30.6336 84.525 30.973C84.8255 31.3124 85.2483 31.4793 85.7936 31.4793C86.1776 31.4793 86.5003 31.3903 86.7729 31.2178C87.0456 31.0453 87.2515 30.7838 87.4017 30.4444L87.8357 30.717C87.6799 31.101 87.4295 31.407 87.0845 31.6351C86.734 31.8688 86.3055 31.9801 85.7992 31.9801L85.7881 31.9857ZM85.738 27.0391C85.482 27.0391 85.2539 27.0836 85.048 27.1726C84.8421 27.2616 84.6697 27.3896 84.525 27.551C84.3803 27.7123 84.269 27.9071 84.1911 28.1352C84.1132 28.3634 84.0687 28.6138 84.0687 28.8864V28.9476H87.3461V28.8697C87.3461 28.3077 87.2014 27.8626 86.9176 27.5343C86.6338 27.206 86.2388 27.0391 85.738 27.0391Z" fill="#ECF2FE"/>
        <path d="M91.3076 31.8688V26.683H91.8807V27.4898H91.9197C92.0198 27.2505 92.1868 27.0335 92.426 26.8443C92.6653 26.6551 92.9992 26.5605 93.4387 26.5605C94.0007 26.5605 94.4403 26.7275 94.7519 27.0669C95.0635 27.4063 95.2193 27.8904 95.2193 28.5192V31.8633H94.6462V28.6082C94.6462 28.0685 94.5293 27.679 94.3012 27.4286C94.0675 27.1782 93.7336 27.0558 93.2941 27.0558C93.1104 27.0558 92.9379 27.078 92.771 27.1281C92.6041 27.1726 92.4539 27.245 92.3259 27.3395C92.1923 27.4341 92.0922 27.551 92.0087 27.6957C91.9308 27.8403 91.8863 28.0073 91.8863 28.202V31.8577H91.3132L91.3076 31.8688Z" fill="#ECF2FE"/>
        <path d="M102.108 31.0508H102.08C101.935 31.329 101.729 31.5571 101.462 31.7296C101.195 31.9021 100.867 31.9911 100.472 31.9911C99.8208 31.9911 99.3145 31.7574 98.9528 31.2956C98.5911 30.8282 98.4131 30.1605 98.4131 29.2813C98.4131 28.4022 98.5967 27.7345 98.9528 27.2671C99.3145 26.7997 99.8208 26.566 100.472 26.566C100.867 26.566 101.195 26.655 101.462 26.8275C101.729 27 101.935 27.2281 102.08 27.5063H102.108V24.4404H102.681V31.8798H102.108V31.0619V31.0508ZM100.661 31.4848C100.856 31.4848 101.039 31.4569 101.212 31.4069C101.384 31.3512 101.54 31.2733 101.674 31.1732C101.807 31.073 101.913 30.9506 101.991 30.8004C102.069 30.6501 102.108 30.4888 102.108 30.3051V28.2464C102.108 28.0628 102.069 27.9014 101.991 27.7512C101.913 27.6009 101.807 27.4785 101.674 27.3784C101.54 27.2782 101.384 27.2003 101.212 27.1447C101.039 27.089 100.856 27.0612 100.661 27.0612C100.138 27.0612 99.7318 27.2281 99.448 27.5564C99.1643 27.8847 99.0196 28.3354 99.0196 28.9085V29.6374C99.0196 30.2106 99.1643 30.6613 99.448 30.9895C99.7318 31.3178 100.138 31.4848 100.661 31.4848Z" fill="#ECF2FE"/>
        <path d="M108.262 31.986C107.549 31.986 106.999 31.7467 106.598 31.2738C106.197 30.7952 105.997 30.1331 105.997 29.2762C105.997 28.4193 106.197 27.7516 106.598 27.2786C106.999 26.8001 107.549 26.5664 108.262 26.5664C108.974 26.5664 109.525 26.8057 109.925 27.2786C110.326 27.7516 110.521 28.4193 110.521 29.2762C110.521 30.1331 110.32 30.8008 109.925 31.2738C109.525 31.7467 108.974 31.986 108.262 31.986ZM108.262 31.4852C108.768 31.4852 109.174 31.3238 109.469 31.0011C109.764 30.6784 109.909 30.211 109.909 29.5934V28.9479C109.909 28.3303 109.759 27.8629 109.469 27.5401C109.174 27.2174 108.774 27.0561 108.262 27.0561C107.75 27.0561 107.349 27.2174 107.054 27.5401C106.759 27.8629 106.615 28.3303 106.615 28.9479V29.5934C106.615 30.211 106.759 30.6784 107.054 31.0011C107.349 31.3238 107.75 31.4852 108.262 31.4852Z" fill="#ECF2FE"/>
        <path d="M113.548 31.3631H115.178V27.1844H113.548V26.6836H115.751V27.8688H115.79C115.907 27.5071 116.102 27.2178 116.38 27.0063C116.658 26.7949 117.026 26.6836 117.482 26.6836H118.378V27.2456H117.315C116.847 27.2456 116.469 27.3847 116.185 27.6629C115.902 27.9411 115.757 28.3139 115.757 28.7813V31.3687H117.866V31.8695H113.553V31.3687L113.548 31.3631Z" fill="#ECF2FE"/>
        <path d="M130.925 31.9857C130.402 31.9857 129.952 31.8967 129.562 31.7186C129.178 31.5406 128.844 31.2902 128.561 30.9674L128.95 30.628C129.206 30.9229 129.49 31.1399 129.807 31.2846C130.124 31.4293 130.497 31.5016 130.931 31.5016C131.365 31.5016 131.754 31.4126 132.044 31.2401C132.328 31.0676 132.472 30.8005 132.472 30.4388C132.472 30.2775 132.444 30.1439 132.389 30.0438C132.333 29.9436 132.255 29.8546 132.155 29.7878C132.055 29.721 131.938 29.671 131.805 29.632C131.671 29.5931 131.521 29.5652 131.365 29.5485L130.564 29.4373C130.363 29.4094 130.157 29.3705 129.957 29.3204C129.751 29.2703 129.568 29.1924 129.406 29.0923C129.239 28.9921 129.106 28.8586 129.006 28.6917C128.9 28.5247 128.85 28.3077 128.85 28.0462C128.85 27.7847 128.9 27.5677 129 27.3841C129.1 27.2004 129.239 27.0446 129.423 26.9222C129.607 26.7998 129.818 26.7108 130.063 26.6496C130.308 26.5884 130.569 26.5605 130.853 26.5605C131.337 26.5605 131.743 26.6384 132.072 26.7942C132.405 26.95 132.684 27.1504 132.912 27.3841L132.528 27.7457C132.456 27.6678 132.366 27.5844 132.272 27.5009C132.177 27.4174 132.055 27.3395 131.921 27.2728C131.788 27.206 131.626 27.1504 131.443 27.1058C131.259 27.0613 131.053 27.0391 130.82 27.0391C130.38 27.0391 130.035 27.117 129.79 27.2783C129.545 27.4397 129.423 27.679 129.423 28.0017C129.423 28.1631 129.451 28.2966 129.506 28.3967C129.562 28.5025 129.64 28.5859 129.74 28.6527C129.84 28.7195 129.957 28.7696 130.091 28.8085C130.224 28.8475 130.369 28.8753 130.525 28.892L131.337 29.0144C131.537 29.0478 131.743 29.0923 131.944 29.1424C132.144 29.1924 132.333 29.2703 132.494 29.3705C132.656 29.4706 132.789 29.6042 132.89 29.7656C132.99 29.9269 133.04 30.1439 133.04 30.4054C133.04 30.667 132.99 30.8951 132.884 31.0898C132.778 31.2846 132.634 31.446 132.45 31.5795C132.266 31.713 132.044 31.8132 131.782 31.88C131.521 31.9467 131.237 31.9801 130.925 31.9801V31.9857Z" fill="#ECF2FE"/>
        <path d="M136.161 31.3627H138.053V24.9305H136.161V24.4297H138.621V31.3627H140.501V31.8635H136.161V31.3627Z" fill="#ECF2FE"/>
        <path d="M145.849 31.986C145.136 31.986 144.586 31.7467 144.185 31.2738C143.784 30.7952 143.584 30.1331 143.584 29.2762C143.584 28.4193 143.784 27.7516 144.185 27.2786C144.586 26.8001 145.136 26.5664 145.849 26.5664C146.561 26.5664 147.112 26.8057 147.512 27.2786C147.913 27.7516 148.108 28.4193 148.108 29.2762C148.108 30.1331 147.907 30.8008 147.512 31.2738C147.112 31.7467 146.561 31.986 145.849 31.986ZM145.849 31.4852C146.355 31.4852 146.761 31.3238 147.056 31.0011C147.351 30.6784 147.496 30.211 147.496 29.5934V28.9479C147.496 28.3303 147.345 27.8629 147.056 27.5401C146.761 27.2174 146.361 27.0561 145.849 27.0561C145.337 27.0561 144.936 27.2174 144.641 27.5401C144.346 27.8629 144.202 28.3303 144.202 28.9479V29.5934C144.202 30.211 144.346 30.6784 144.641 31.0011C144.936 31.3238 145.337 31.4852 145.849 31.4852Z" fill="#ECF2FE"/>
        <path d="M155.92 32.4868C155.92 33.0098 155.708 33.3882 155.274 33.633C154.846 33.8778 154.217 34.0003 153.383 34.0003C152.548 34.0003 151.997 33.8834 151.646 33.6608C151.29 33.4327 151.112 33.1155 151.112 32.7038C151.112 32.4089 151.19 32.1752 151.352 32.0083C151.513 31.8358 151.736 31.7078 152.025 31.6188V31.5409C151.697 31.4129 151.53 31.1792 151.53 30.8398C151.53 30.5838 151.619 30.3891 151.791 30.2499C151.964 30.1108 152.181 30.0107 152.437 29.9439V29.905C152.131 29.7714 151.891 29.5711 151.719 29.304C151.546 29.0369 151.463 28.7142 151.463 28.3414C151.463 28.0799 151.507 27.8406 151.596 27.6236C151.685 27.4066 151.813 27.2174 151.98 27.0616C152.142 26.9058 152.342 26.7834 152.581 26.7C152.815 26.6165 153.076 26.572 153.366 26.572C153.783 26.572 154.134 26.661 154.429 26.8335V26.6221C154.429 26.4607 154.468 26.3327 154.545 26.2326C154.623 26.138 154.746 26.0879 154.924 26.0879H155.937V26.5887H154.751V27.0616C154.918 27.2174 155.046 27.4011 155.141 27.6125C155.23 27.8295 155.274 28.0688 155.274 28.3358C155.274 28.6029 155.23 28.8366 155.141 29.0481C155.052 29.2595 154.924 29.4487 154.751 29.6045C154.584 29.7603 154.384 29.8827 154.15 29.9662C153.917 30.0496 153.655 30.0942 153.366 30.0942C153.271 30.0942 153.182 30.0942 153.104 30.083C153.026 30.0719 152.937 30.0608 152.843 30.0441C152.626 30.0997 152.442 30.1776 152.281 30.2889C152.119 30.4002 152.042 30.5449 152.042 30.7229C152.042 31.0289 152.325 31.1792 152.887 31.1792H154.123C154.751 31.1792 155.208 31.296 155.491 31.5353C155.775 31.7746 155.92 32.0917 155.92 32.4923V32.4868ZM155.38 32.5035C155.38 32.2531 155.285 32.0583 155.102 31.9137C154.918 31.769 154.59 31.6967 154.123 31.6967H152.425C152.192 31.769 152.008 31.8803 151.88 32.0249C151.752 32.1696 151.685 32.3588 151.685 32.5925C151.685 32.8651 151.797 33.0933 152.025 33.2713C152.253 33.4494 152.587 33.5384 153.043 33.5384H153.716C154.234 33.5384 154.64 33.455 154.941 33.2825C155.241 33.11 155.386 32.854 155.386 32.5035H155.38ZM153.371 29.6379C153.805 29.6379 154.134 29.5322 154.351 29.3152C154.568 29.1037 154.679 28.8255 154.679 28.4916V28.1578C154.679 27.8184 154.568 27.5402 154.351 27.3287C154.134 27.1173 153.805 27.0116 153.371 27.0116C152.937 27.0116 152.62 27.1173 152.403 27.3287C152.186 27.5402 152.075 27.8184 152.075 28.1578V28.4916C152.075 28.8255 152.186 29.1037 152.409 29.3152C152.631 29.5322 152.954 29.6379 153.371 29.6379Z" fill="#ECF2FE"/>
        <path d="M162.68 31.8691C162.446 31.8691 162.279 31.8135 162.179 31.6966C162.079 31.5798 162.023 31.4296 162.007 31.2348V31.0512H161.957C161.84 31.3238 161.656 31.552 161.395 31.7245C161.133 31.897 160.777 31.986 160.326 31.986C159.787 31.986 159.358 31.8524 159.046 31.5909C158.735 31.3238 158.579 30.951 158.579 30.4725C158.579 30.2444 158.618 30.0385 158.696 29.8549C158.774 29.6713 158.896 29.5155 159.069 29.3875C159.241 29.2595 159.458 29.1593 159.725 29.0926C159.992 29.0202 160.321 28.9869 160.71 28.9869H161.979V28.3581C161.979 27.9241 161.862 27.6014 161.623 27.3899C161.383 27.1785 161.055 27.0672 160.632 27.0672C159.92 27.0672 159.425 27.351 159.147 27.913L158.757 27.6292C158.891 27.3287 159.119 27.0728 159.436 26.8724C159.753 26.6721 160.165 26.5664 160.666 26.5664C161.256 26.5664 161.717 26.7166 162.051 27.0227C162.385 27.3287 162.552 27.7516 162.552 28.2969V31.3739H163.325V31.8747H162.68V31.8691ZM160.421 31.5075C160.643 31.5075 160.844 31.4796 161.033 31.4296C161.222 31.3739 161.383 31.3016 161.523 31.2014C161.662 31.1013 161.773 30.9844 161.856 30.8453C161.934 30.7062 161.979 30.5448 161.979 30.3724V29.4153H160.71C160.165 29.4153 159.775 29.4988 159.542 29.6601C159.302 29.8271 159.186 30.0496 159.186 30.3278V30.5894C159.186 30.8898 159.297 31.118 159.519 31.2738C159.742 31.4296 160.042 31.5075 160.421 31.5075Z" fill="#ECF2FE"/>
        <path d="M166.48 31.8688V26.683H167.054V27.4898H167.093C167.193 27.2505 167.36 27.0335 167.599 26.8443C167.838 26.6551 168.172 26.5605 168.612 26.5605C169.174 26.5605 169.613 26.7275 169.925 27.0669C170.236 27.4063 170.392 27.8904 170.392 28.5192V31.8633H169.819V28.6082C169.819 28.0685 169.702 27.679 169.474 27.4286C169.24 27.1782 168.906 27.0558 168.467 27.0558C168.283 27.0558 168.111 27.078 167.944 27.1281C167.777 27.1726 167.627 27.245 167.499 27.3395C167.365 27.4341 167.265 27.551 167.182 27.6957C167.104 27.8403 167.059 28.0073 167.059 28.202V31.8577H166.486L166.48 31.8688Z" fill="#ECF2FE"/>
    </g>
    <defs>
        <linearGradient id="paint0_linear_2055_14860" x1="29.739" y1="10.5026" x2="10.6049" y2="12.7118" gradientUnits="userSpaceOnUse">
            <stop stop-color="#ECF2FE"/>
            <stop offset="1" stop-color="#A0BFF8"/>
        </linearGradient>
        <linearGradient id="paint1_linear_2055_14860" x1="17.1231" y1="33.5751" x2="26.0722" y2="22.8583" gradientUnits="userSpaceOnUse">
            <stop stop-color="#ECF2FE"/>
            <stop offset="0.97" stop-color="#A0BFF8"/>
        </linearGradient>
        <linearGradient id="paint2_linear_2055_14860" x1="-2.75063" y1="18.9731" x2="27.3825" y2="-2.05313" gradientUnits="userSpaceOnUse">
            <stop stop-color="#ECF2FE"/>
            <stop offset="0.97" stop-color="#A0BFF8"/>
        </linearGradient>
        <linearGradient id="paint3_linear_2055_14860" x1="19.2108" y1="7.1651" x2="26.6641" y2="18.9968" gradientUnits="userSpaceOnUse">
            <stop stop-color="#ECF2FE"/>
            <stop offset="0.97" stop-color="#A0BFF8"/>
        </linearGradient>
        <clipPath id="clip0_2055_14860">
            <rect width="30.3525" height="36" fill="white"/>
        </clipPath>
        <clipPath id="clip1_2055_14860">
            <rect width="132.368" height="32" fill="white" transform="translate(38.3525 2)"/>
        </clipPath>
    </defs>
</svg>
