<svg width="18" height="2" viewBox="0 0 18 2" fill="none" xmlns="http://www.w3.org/2000/svg">
<path d="M0.75 1.5H17.242C17.4409 1.5 17.6317 1.42098 17.7723 1.28033C17.913 1.13968 17.992 0.948912 17.992 0.75C17.992 0.551088 17.913 0.360323 17.7723 0.21967C17.6317 0.079018 17.4409 8.38353e-09 17.242 0H0.75C0.551088 8.38353e-09 0.360322 0.079018 0.21967 0.21967C0.0790175 0.360323 0 0.551088 0 0.75C0 0.948912 0.0790175 1.13968 0.21967 1.28033C0.360322 1.42098 0.551088 1.5 0.75 1.5Z" fill="url(#paint0_linear_1719_1955)"/>
<defs>
<linearGradient id="paint0_linear_1719_1955" x1="1.18072" y1="1.29375" x2="3.73014" y2="-5.53465" gradientUnits="userSpaceOnUse">
<stop stop-color="#0C44AC"/>
<stop offset="1" stop-color="#548BF3"/>
</linearGradient>
</defs>
</svg>
