<svg width="19" height="20" viewBox="0 0 19 20" fill="none" xmlns="http://www.w3.org/2000/svg">
<path d="M17.029 15.0008C14.267 19.7848 8.15001 21.4238 3.36601 18.6618C2.07921 17.9209 0.974275 16.9017 0.13201 15.6788C0.0669521 15.5842 0.0244851 15.4759 0.00788227 15.3623C-0.00872056 15.2487 0.000984117 15.1328 0.0362484 15.0235C0.0715126 14.9142 0.131395 14.8145 0.21128 14.7321C0.291165 14.6496 0.38892 14.5866 0.49701 14.5478C4.26401 13.1998 6.28201 11.6368 7.45301 9.40182C8.68501 7.04882 9.00401 4.47182 8.14201 0.93782C8.1144 0.824174 8.11374 0.705645 8.1401 0.591702C8.16646 0.477758 8.21911 0.371558 8.29382 0.281585C8.36854 0.191612 8.46327 0.12036 8.57043 0.0735203C8.67759 0.0266805 8.79423 0.00555131 8.91101 0.0118206C10.4806 0.0963049 12.0079 0.551029 13.368 1.33882C18.152 4.09982 19.791 10.2168 17.028 14.9998L17.029 15.0008ZM8.78101 10.0978C7.53101 12.4858 5.47101 14.1968 1.96401 15.5968C2.57931 16.2999 3.30642 16.8965 4.11601 17.3628C5.08287 17.9211 6.15021 18.2834 7.25711 18.4292C8.364 18.5749 9.48876 18.5012 10.5672 18.2123C11.6456 17.9234 12.6565 17.4249 13.5423 16.7452C14.428 16.0656 15.1713 15.2182 15.7295 14.2513C16.2878 13.2845 16.6501 12.2171 16.7959 11.1102C16.9416 10.0033 16.8679 8.87857 16.579 7.80016C16.2901 6.72174 15.7916 5.7108 15.1119 4.82505C14.4323 3.93929 13.5849 3.19607 12.618 2.63782C11.7543 2.13758 10.8092 1.79364 9.82601 1.62182C10.473 5.00582 10.056 7.66582 8.78101 10.0978Z" fill="#110F10"/>
</svg>
