<svg width="18" height="18" viewBox="0 0 18 18" fill="none" xmlns="http://www.w3.org/2000/svg">
<path d="M8.74777 0C8.92901 7.6429e-06 9.10411 0.0656426 9.2407 0.184767C9.37729 0.303891 9.46612 0.468446 9.49077 0.648L9.49777 0.75L9.49877 8H16.7518C16.9418 8.00006 17.1247 8.07224 17.2636 8.20197C17.4024 8.3317 17.4868 8.5093 17.4998 8.69888C17.5128 8.88846 17.4533 9.07589 17.3333 9.2233C17.2134 9.37071 17.042 9.4671 16.8538 9.493L16.7518 9.5H9.49877L9.50077 16.75C9.50046 16.9399 9.4281 17.1227 9.29829 17.2613C9.16848 17.4 8.9909 17.4842 8.80139 17.4971C8.61189 17.5099 8.42458 17.4503 8.27728 17.3304C8.12998 17.2105 8.03366 17.0392 8.00777 16.851L8.00077 16.749L7.99877 9.5H0.749772C0.559748 9.49994 0.376831 9.42776 0.23798 9.29803C0.099129 9.1683 0.0146974 8.9907 0.00174538 8.80112C-0.0112066 8.61154 0.0482868 8.42411 0.168204 8.2767C0.288121 8.12929 0.459522 8.0329 0.647772 8.007L0.749772 8H7.99977L7.99777 0.75C7.99777 0.551088 8.07679 0.360322 8.21744 0.21967C8.35809 0.0790175 8.54886 0 8.74777 0Z" fill="url(#paint0_linear_1719_4678)"/>
<defs>
<linearGradient id="paint0_linear_1719_4678" x1="1.14854" y1="15.0927" x2="20.4562" y2="10.7806" gradientUnits="userSpaceOnUse">
<stop stop-color="#0C44AC"/>
<stop offset="1" stop-color="#548BF3"/>
</linearGradient>
</defs>
</svg>
