<svg width="48" height="48" viewBox="0 0 48 48" fill="none" xmlns="http://www.w3.org/2000/svg">
<path d="M35.5 27.992C36.0909 27.9917 36.676 28.1079 37.2219 28.3338C37.7679 28.5597 38.264 28.891 38.6819 29.3087C39.0997 29.7264 39.4312 30.2224 39.6574 30.7682C39.8836 31.3141 40 31.8991 40 32.49V33.64C40 35.428 39.36 37.16 38.196 38.516C35.056 42.184 30.282 43.994 23.992 43.994C17.7 43.994 12.928 42.184 9.796 38.514C8.63677 37.1562 7.99994 35.4294 8 33.644V32.49C7.99974 31.8991 8.11589 31.314 8.34182 30.7681C8.56774 30.2221 8.89902 29.726 9.31673 29.3081C9.73443 28.8903 10.2304 28.5588 10.7762 28.3326C11.3221 28.1064 11.9071 27.99 12.498 27.99H35.5V27.992ZM35.5 30.992H12.498C12.3011 30.9917 12.1061 31.0303 11.9241 31.1055C11.7421 31.1806 11.5768 31.2909 11.4375 31.43C11.2981 31.5692 11.1876 31.7344 11.1122 31.9163C11.0368 32.0982 10.998 32.2931 10.998 32.49V33.644C10.998 34.716 11.382 35.752 12.078 36.566C14.584 39.502 18.516 40.994 23.992 40.994C29.468 40.994 33.404 39.502 35.916 36.566C36.614 35.7509 36.9978 34.7131 36.998 33.64V32.49C36.9983 32.2931 36.9597 32.0981 36.8845 31.9161C36.8094 31.7341 36.6991 31.5688 36.56 31.4295C36.4208 31.2901 36.2556 31.1796 36.0737 31.1042C35.8918 31.0288 35.6969 30.99 35.5 30.99V30.992ZM23.992 4C26.6442 4 29.1877 5.05357 31.0631 6.92893C32.9384 8.8043 33.992 11.3478 33.992 14C33.992 16.6522 32.9384 19.1957 31.0631 21.0711C29.1877 22.9464 26.6442 24 23.992 24C21.3398 24 18.7963 22.9464 16.9209 21.0711C15.0456 19.1957 13.992 16.6522 13.992 14C13.992 11.3478 15.0456 8.8043 16.9209 6.92893C18.7963 5.05357 21.3398 4 23.992 4ZM23.992 7C23.0727 7 22.1625 7.18106 21.3132 7.53284C20.4639 7.88463 19.6923 8.40024 19.0423 9.05025C18.3922 9.70026 17.8766 10.4719 17.5248 11.3212C17.1731 12.1705 16.992 13.0807 16.992 14C16.992 14.9193 17.1731 15.8295 17.5248 16.6788C17.8766 17.5281 18.3922 18.2997 19.0423 18.9497C19.6923 19.5998 20.4639 20.1154 21.3132 20.4672C22.1625 20.8189 23.0727 21 23.992 21C25.8485 21 27.629 20.2625 28.9417 18.9497C30.2545 17.637 30.992 15.8565 30.992 14C30.992 12.1435 30.2545 10.363 28.9417 9.05025C27.629 7.7375 25.8485 7 23.992 7Z" fill="url(#paint0_linear_315_20007)"/>
<defs>
<linearGradient id="paint0_linear_315_20007" x1="10.1" y1="38.4948" x2="46.0166" y2="32.0777" gradientUnits="userSpaceOnUse">
<stop stop-color="#0C44AC"/>
<stop offset="1" stop-color="#548BF3"/>
</linearGradient>
</defs>
</svg>
