<svg width="56" height="56" viewBox="0 0 56 56" fill="none" xmlns="http://www.w3.org/2000/svg">
<path d="M30.8215 7.23942C29.6665 4.89676 26.3275 4.89676 25.1725 7.23942L19.6705 18.3858L7.36682 20.1731C4.78382 20.5488 3.75015 23.7244 5.62148 25.5468L14.5231 34.2268L12.4231 46.4768C11.9798 49.0504 14.6818 51.0128 16.9941 49.7994L27.9958 44.0128L38.9998 49.7994C41.3098 51.0128 44.0118 49.0528 43.5731 46.4768L41.4685 34.2268L50.3725 25.5468C52.2391 23.7268 51.2101 20.5488 48.6271 20.1731L36.3235 18.3858L30.8215 7.23942ZM22.7271 20.1008L27.9958 9.42342L33.2668 20.1008C33.4929 20.5584 33.8268 20.9542 34.2397 21.2542C34.6527 21.5541 35.1324 21.7493 35.6375 21.8228L47.4208 23.5354L38.8948 31.8468C38.5292 32.2033 38.2557 32.6434 38.098 33.1292C37.9403 33.6149 37.903 34.1317 37.9895 34.6351L40.0008 46.3718L29.4635 40.8301C29.0113 40.5922 28.508 40.4679 27.997 40.4679C27.486 40.4679 26.9827 40.5922 26.5305 40.8301L15.9931 46.3694L18.0045 34.6351C18.0909 34.1317 18.0537 33.6149 17.896 33.1292C17.7382 32.6434 17.4648 32.2033 17.0991 31.8468L8.57315 23.5354L20.3565 21.8228C21.3831 21.6758 22.2698 21.0294 22.7271 20.1008ZM2.71648 8.82376C2.4269 9.18641 2.29322 9.64923 2.34486 10.1104C2.39649 10.5716 2.6292 10.9935 2.99182 11.2831L8.82515 15.9498C9.18779 16.2397 9.65075 16.3737 10.1122 16.3223C10.3407 16.2968 10.5619 16.2266 10.7632 16.1156C10.9646 16.0047 11.1421 15.8551 11.2856 15.6756C11.4292 15.496 11.536 15.29 11.5999 15.0691C11.6638 14.8483 11.6836 14.617 11.6582 14.3886C11.6327 14.1601 11.5625 13.9389 11.4515 13.7375C11.3406 13.5362 11.191 13.3586 11.0115 13.2151L5.17815 8.54842C4.99852 8.40467 4.7923 8.29776 4.5713 8.23379C4.35031 8.16983 4.11886 8.15006 3.89022 8.17564C3.66158 8.20121 3.44022 8.27162 3.23882 8.38283C3.03742 8.49404 2.85992 8.64387 2.71648 8.82376Z" fill="url(#paint0_linear_315_22743)"/>
<path d="M53.2841 42.509C53.5739 42.1466 53.708 41.684 53.6568 41.2228C53.6056 40.7616 53.3734 40.3396 53.0111 40.0496L47.1778 35.383C46.8151 35.0927 46.352 34.9585 45.8904 35.0097C45.4287 35.0609 45.0063 35.2933 44.7161 35.656C44.4259 36.0186 44.2916 36.4817 44.3428 36.9434C44.394 37.405 44.6265 37.8274 44.9891 38.1176L50.8224 42.7843C51.0019 42.9282 51.208 43.0353 51.4289 43.0994C51.6498 43.1636 51.8812 43.1835 52.1099 43.1582C52.3385 43.1328 52.5599 43.0627 52.7614 42.9517C52.9629 42.8407 53.1405 42.6887 53.2841 42.509ZM2.99143 40.0496C2.62879 40.3396 2.39617 40.7617 2.34476 41.2231C2.29334 41.6846 2.42734 42.1475 2.71726 42.5101C3.00719 42.8728 3.4293 43.1054 3.89073 43.1568C4.35216 43.2082 4.81512 43.0742 5.17776 42.7843L11.0111 38.1176C11.3737 37.8277 11.6063 37.4056 11.6578 36.9442C11.7092 36.4827 11.5752 36.0198 11.2853 35.6571C10.9953 35.2945 10.5732 35.0619 10.1118 35.0105C9.65036 34.9591 9.1874 35.0931 8.82476 35.383L2.99143 40.0496ZM53.2841 8.82498C53.5739 9.18734 53.708 9.64998 53.6568 10.1112C53.6056 10.5724 53.3734 10.9943 53.0111 11.2843L47.1778 15.951C46.8151 16.2412 46.352 16.3755 45.8904 16.3243C45.4287 16.2731 45.0063 16.0406 44.7161 15.678C44.4259 15.3153 44.2916 14.8523 44.3428 14.3906C44.394 13.929 44.6265 13.5065 44.9891 13.2163L50.8224 8.54965C51.0021 8.4059 51.2083 8.29898 51.4293 8.23502C51.6503 8.17105 51.8817 8.15129 52.1104 8.17686C52.339 8.20243 52.5604 8.27284 52.7618 8.38405C52.9632 8.49526 53.1407 8.6451 53.2841 8.82498Z" fill="url(#paint1_linear_315_22743)"/>
<defs>
<linearGradient id="paint0_linear_315_22743" x1="5.54908" y1="44.0235" x2="59.0838" y2="30.917" gradientUnits="userSpaceOnUse">
<stop stop-color="#0C44AC"/>
<stop offset="1" stop-color="#548BF3"/>
</linearGradient>
<linearGradient id="paint1_linear_315_22743" x1="5.70275" y1="38.356" x2="59.3996" y2="20.7712" gradientUnits="userSpaceOnUse">
<stop stop-color="#0C44AC"/>
<stop offset="1" stop-color="#548BF3"/>
</linearGradient>
</defs>
</svg>
