<svg width="48" height="48" viewBox="0 0 48 48" fill="none" xmlns="http://www.w3.org/2000/svg">
<path d="M36.0027 4C36.3482 4.00013 36.6831 4.11952 36.9507 4.338L37.1027 4.478L43.6467 11.538L43.7067 11.614C43.9107 11.886 44.0027 12.194 44.0027 12.494V16.336C44.0027 18.324 43.2447 20.136 42.0027 21.496V42.5C42.0026 42.8628 41.8711 43.2132 41.6324 43.4865C41.3938 43.7597 41.0642 43.9371 40.7047 43.986L40.5027 44H7.5027C7.14023 44 6.79002 43.8687 6.51684 43.6305C6.24366 43.3922 6.066 43.0631 6.0167 42.704L6.0027 42.5V21.496C4.82011 20.2018 4.11886 18.5401 4.0167 16.79L4.0027 16.334V12.58C3.98532 12.2951 4.05209 12.0113 4.1947 11.764L4.3247 11.574L4.4047 11.482L10.9027 4.48C11.138 4.22618 11.4539 4.06154 11.7967 4.014L12.0027 4H36.0027ZM30.1667 20.884L30.1427 20.92C29.4298 21.8765 28.5031 22.6532 27.4367 23.1879C26.3703 23.7227 25.1937 24.0008 24.0007 24C22.8009 24.0008 21.6178 23.7196 20.5467 23.179C19.4756 22.6385 18.5467 21.8537 17.8347 20.888C17.1232 21.8536 16.1945 22.6384 15.1238 23.179C14.053 23.7196 12.8702 24.0008 11.6707 24C10.7307 24 9.8327 23.832 9.0027 23.524V41H12.0027V27.504C12.0027 27.1415 12.134 26.7913 12.3722 26.5181C12.6105 26.245 12.9396 26.0673 13.2987 26.018L13.5027 26H22.4947C22.8572 26 23.2074 26.1313 23.4806 26.3695C23.7537 26.6078 23.9314 26.9369 23.9807 27.296L23.9947 27.5V40.996H38.9987V23.522C37.4396 24.1013 35.7343 24.157 34.1407 23.6807C32.5471 23.2043 31.1521 22.2219 30.1667 20.882V20.884ZM20.9927 29.002H15.0027V40.998H20.9927V29.002ZM34.5127 26.002C34.8752 26.002 35.2254 26.1333 35.4986 26.3715C35.7717 26.6098 35.9494 26.9389 35.9987 27.298L36.0127 27.502V34.506C36.0126 34.8688 35.8811 35.2192 35.6424 35.4925C35.4038 35.7657 35.0742 35.9431 34.7147 35.992L34.5127 36.006H27.5087C27.1462 36.006 26.796 35.8747 26.5228 35.6365C26.2497 35.3982 26.072 35.0691 26.0227 34.71L26.0087 34.506V27.502C26.0087 27.1395 26.14 26.7893 26.3782 26.5161C26.6165 26.243 26.9456 26.0653 27.3047 26.016L27.5087 26.002H34.5127ZM33.0107 29.002H29.0087V33.006H33.0087L33.0107 29.002ZM16.3347 14.004H7.0027V16.334L7.0147 16.674L7.0727 17.138L7.1367 17.45L7.2367 17.794L7.3447 18.09L7.4247 18.278C7.4887 18.414 7.5567 18.546 7.6327 18.674L7.8367 18.998L7.9467 19.146L8.2047 19.458L8.4867 19.746L8.6807 19.916L8.7647 19.984C9.3927 20.484 10.1547 20.828 10.9867 20.95L11.3467 20.988L11.6667 20.998C14.1367 20.998 16.1587 19.08 16.3227 16.652L16.3327 16.332V14.006L16.3347 14.004ZM28.6647 14.004H19.3347V16.334C19.3347 18.694 21.0907 20.648 23.3667 20.956L23.6807 20.988L24.0007 20.998C26.4687 20.998 28.4907 19.08 28.6547 16.652L28.6647 16.332V14.004ZM40.9987 14.004H31.6687V16.334C31.6687 18.694 33.4247 20.648 35.7027 20.956L36.0147 20.988L36.3347 20.998C37.4627 20.998 38.4987 20.598 39.3047 19.93L39.4847 19.774L39.7167 19.548L40.0087 19.208C40.1167 19.07 40.2187 18.928 40.3087 18.776L40.5167 18.404L40.6427 18.128L40.7587 17.818L40.8187 17.626L40.8947 17.322L40.9527 17.008L40.9887 16.674L41.0007 16.334L40.9987 14.004ZM18.1267 6.998H12.6567L8.9407 11.004H16.8947L18.1267 6.998ZM26.7387 6.998H21.2627L20.0307 11.004H27.9707L26.7387 6.998ZM35.3467 6.998H29.8767L31.1107 11.004H39.0627L35.3467 6.998Z" fill="url(#paint0_linear_1156_9702)"/>
<defs>
<linearGradient id="paint0_linear_1156_9702" x1="6.62518" y1="38.5" x2="50.7564" y2="28.6448" gradientUnits="userSpaceOnUse">
<stop stop-color="#0C44AC"/>
<stop offset="1" stop-color="#548BF3"/>
</linearGradient>
</defs>
</svg>
