<svg width="100" height="100" viewBox="0 0 100 100" fill="none"
    xmlns="http://www.w3.org/2000/svg">
    <path d="M50 0C77.615 0 100 22.385 100 50C100 77.615 77.615 100 50 100C22.385 100 0 77.615 0 50C0 22.385 22.385 0 50 0ZM66.1 34.85L43.75 57.2L33.9 47.35C33.1891 46.6876 32.2489 46.327 31.2774 46.3441C30.3059 46.3613 29.379 46.7548 28.6919 47.4419C28.0048 48.129 27.6113 49.0559 27.5941 50.0274C27.577 50.9989 27.9376 51.9391 28.6 52.65L41.1 65.15C41.8031 65.8522 42.7562 66.2467 43.75 66.2467C44.7438 66.2467 45.6969 65.8522 46.4 65.15L71.4 40.15C71.7684 39.8067 72.0639 39.3927 72.2689 38.9327C72.4739 38.4727 72.5841 37.9761 72.593 37.4726C72.6018 36.9691 72.5092 36.469 72.3206 36.002C72.132 35.5351 71.8513 35.1109 71.4952 34.7548C71.1391 34.3987 70.7149 34.118 70.248 33.9294C69.781 33.7408 69.2809 33.6482 68.7774 33.657C68.2739 33.6659 67.7773 33.7761 67.3173 33.9811C66.8573 34.1861 66.4433 34.4816 66.1 34.85Z" fill="#00A190"/>
</svg>
