<svg width="48" height="48" viewBox="0 0 48 48" fill="none" xmlns="http://www.w3.org/2000/svg">
<path d="M31.5 29C31.1022 29 30.7206 29.158 30.4393 29.4393C30.158 29.7206 30 30.1022 30 30.5C30 30.8978 30.158 31.2794 30.4393 31.5607C30.7206 31.842 31.1022 32 31.5 32H36.5C36.8978 32 37.2794 31.842 37.5607 31.5607C37.842 31.2794 38 30.8978 38 30.5C38 30.1022 37.842 29.7206 37.5607 29.4393C37.2794 29.158 36.8978 29 36.5 29H31.5Z" fill="url(#paint0_linear_320_23325)"/>
<path d="M9.5 10C8.04131 10 6.64236 10.5795 5.61091 11.6109C4.57946 12.6424 4 14.0413 4 15.5V32.5C4 33.9587 4.57946 35.3576 5.61091 36.3891C6.64236 37.4205 8.04131 38 9.5 38H38.5C39.9587 38 41.3576 37.4205 42.3891 36.3891C43.4205 35.3576 44 33.9587 44 32.5V15.5C44 14.0413 43.4205 12.6424 42.3891 11.6109C41.3576 10.5795 39.9587 10 38.5 10H9.5ZM7 32.5V22H41V32.5C41 33.88 39.88 35 38.5 35H9.5C8.12 35 7 33.88 7 32.5ZM7 19V15.5C7 14.12 8.12 13 9.5 13H38.5C39.88 13 41 14.12 41 15.5V19H7Z" fill="url(#paint1_linear_320_23325)"/>
<defs>
<linearGradient id="paint0_linear_320_23325" x1="30.525" y1="31.5875" x2="37.3653" y2="27.5143" gradientUnits="userSpaceOnUse">
<stop stop-color="#0C44AC"/>
<stop offset="1" stop-color="#548BF3"/>
</linearGradient>
<linearGradient id="paint1_linear_320_23325" x1="6.625" y1="34.15" x2="48.6748" y2="20.7361" gradientUnits="userSpaceOnUse">
<stop stop-color="#0C44AC"/>
<stop offset="1" stop-color="#548BF3"/>
</linearGradient>
</defs>
</svg>
