<svg width="120" height="132" viewBox="0 0 120 132" fill="none" xmlns="http://www.w3.org/2000/svg">
<path fill-rule="evenodd" clip-rule="evenodd" d="M70.9201 56.029L68.4469 54.5843L67.6496 54.1184L67.2867 54.9648L66.9947 55.6465C65.8345 58.3573 63.5277 60.0413 60.9747 60.0413C58.4218 60.0413 56.1153 58.3573 54.9552 55.6469L54.6635 54.9652L54.3011 54.1184L53.5034 54.5843L51.0302 56.029L50.4127 56.3897L50.6934 57.0446L50.985 57.7259C52.8757 62.1453 56.7035 64.8906 60.9747 64.8906C65.2455 64.8906 69.0733 62.1453 70.9648 57.7259L71.2569 57.045L71.5376 56.3897L70.9201 56.029ZM43.3941 54.5843L42.5964 54.1184L42.2336 54.9648L41.9415 55.6465C40.7814 58.3573 38.4749 60.0413 35.922 60.0413C33.369 60.0413 31.0626 58.3573 29.9025 55.6469L29.6104 54.9652L29.248 54.1184L28.4503 54.5843L25.977 56.029L25.36 56.3897L25.6402 57.0446L25.9319 57.7259C27.8226 62.1453 31.6504 64.8906 35.922 64.8906C40.1924 64.8906 44.0206 62.1453 45.9117 57.7259L46.2038 57.045L46.4844 56.3897L45.8673 56.029L43.3941 54.5843Z" fill="#393C4D" fill-opacity="0.666667"/>
<path fill-rule="evenodd" clip-rule="evenodd" d="M48.8544 78.9811C46.7152 78.9811 44.981 80.7071 44.981 82.8359C44.981 84.9646 46.7152 86.6898 48.8544 86.6898C50.9933 86.6898 52.7274 84.9646 52.7274 82.8359C52.7274 80.7071 50.9933 78.9811 48.8544 78.9811Z" fill="#393C4D" fill-opacity="0.666667"/>
<path fill-rule="evenodd" clip-rule="evenodd" d="M119.933 40.3915V43.1153H108.985V40.9817L115.235 33.6271H109.144V30.9033H119.729V33.037L113.479 40.3915H119.933Z" fill="#393C4D" fill-opacity="0.666667"/>
<path fill-rule="evenodd" clip-rule="evenodd" d="M114.457 16.0578L114.459 20.6671L95.9299 20.6748L95.9283 17.0641L106.501 4.61328L96.1935 4.61733L96.1919 0.00801859L114.105 0.000732422L114.106 3.61103L103.533 16.0623L114.457 16.0578Z" fill="#393C4D" fill-opacity="0.666667"/>
<path fill-rule="evenodd" clip-rule="evenodd" d="M16.0493 38.4221C11.722 38.4221 8.20175 41.9279 8.20175 46.2369L9.19063 116.173L19.7197 102.731C20.4906 101.747 21.6743 101.171 22.928 101.171H83.7839C88.1112 101.171 91.6314 97.6696 91.6314 93.365L90.6426 46.2369C90.6426 41.9279 87.1223 38.4221 82.795 38.4221H16.0493ZM5.12285 131.999C4.68109 131.999 4.23526 131.928 3.80122 131.779C2.15865 131.218 1.05587 129.679 1.05587 127.951L0.0669861 46.2377C0.0669861 37.4648 7.23689 30.3271 16.0502 30.3271H82.7958C91.6095 30.3271 98.779 37.4648 98.779 46.2377L99.7679 93.3659C99.7679 102.134 92.598 109.268 83.7847 109.268H24.9155L8.33193 130.44C7.54604 131.443 6.35295 131.999 5.12285 131.999Z" fill="#393C4D"/>
</svg>
