<svg width="136" height="130" viewBox="0 0 136 130" fill="none" xmlns="http://www.w3.org/2000/svg">
<path fill-rule="evenodd" clip-rule="evenodd" d="M81.3314 69.1287L78.6535 67.5194L77.7897 67.0005L77.3968 67.9433L77.081 68.7022C75.8244 71.7219 73.3266 73.5977 70.5628 73.5977C67.7985 73.5977 65.3007 71.7219 64.045 68.7026L63.7288 67.9437L63.3363 67L62.4726 67.5194L59.7947 69.1287L59.1265 69.5305L59.43 70.2601L59.7458 71.0189C61.7934 75.9415 65.9381 79 70.5628 79C75.1871 79 79.3317 75.9415 81.3794 71.0185L81.6956 70.2601L82 69.5305L81.3314 69.1287ZM51.527 67.5194L50.6632 67.0005L50.2703 67.9433L49.9545 68.7022C48.6979 71.7219 46.2006 73.5977 43.4363 73.5977C40.672 73.5977 38.1747 71.7219 36.9185 68.7026L36.6023 67.9437L36.2103 67L35.3461 67.5194L32.6682 69.1287L32 69.5305L32.3035 70.2601L32.6193 71.0189C34.6669 75.9415 38.8116 79 43.4363 79C48.0606 79 52.2052 75.9415 54.2529 71.0185L54.5692 70.2601L54.8735 69.5305L54.2049 69.1287L51.527 67.5194Z" fill="#ADA9AA"/>
<path fill-rule="evenodd" clip-rule="evenodd" d="M58.0002 94C55.7905 94 54 95.7912 54 98C54 100.209 55.7905 102 58.0002 102C60.2091 102 62 100.209 62 98C62 95.7912 60.2091 94 58.0002 94Z" fill="#ADA9AA"/>
<path fill-rule="evenodd" clip-rule="evenodd" d="M136 44.1004V47H124V44.7287L130.85 36.8996H124.175V34H135.776V36.2713L128.926 44.1004H136Z" fill="#ADA9AA"/>
<path fill-rule="evenodd" clip-rule="evenodd" d="M129.998 17.8636L130 22.9914L110.002 23L110 18.9831L121.411 5.13148L110.286 5.13598L110.284 0.00765556L129.618 0L129.619 4.01647L118.208 17.8685L129.998 17.8636Z" fill="#ADA9AA"/>
<path fill-rule="evenodd" clip-rule="evenodd" d="M106.715 112.448C106.715 117.016 102.992 120.732 98.4149 120.732H17.5851C13.0083 120.732 9.28509 117.016 9.28509 112.448V36.552C9.28509 31.9843 13.0083 28.2676 17.5851 28.2676H39.8098L52.1038 40.538L52.7526 41.186H98.4149C102.992 41.186 106.715 44.9023 106.715 49.4704V112.448ZM110.821 37.0876C107.481 33.7544 103.075 31.9184 98.4149 31.9184H56.5294L44.2359 19.6475L43.5867 19H17.5851C12.9246 19 8.51846 20.8356 5.17896 24.1692C1.83903 27.5024 0 31.9003 0 36.552V112.448C0 117.1 1.83903 121.498 5.17896 124.831C8.51846 128.164 12.9246 130 17.5851 130H98.4149C103.075 130 107.481 128.164 110.821 124.831C114.161 121.498 116 117.1 116 112.448V49.4704C116 44.8187 114.161 40.4213 110.821 37.0876Z" fill="#DFDDDE"/>
</svg>
