<svg width="146" height="160" viewBox="0 0 146 160" fill="none" xmlns="http://www.w3.org/2000/svg">
<path fill-rule="evenodd" clip-rule="evenodd" d="M86.1701 67.9132L83.187 66.162L82.2253 65.5973L81.7877 66.6233L81.4354 67.4495C80.036 70.7354 77.2536 72.7766 74.1743 72.7766C71.095 72.7766 68.313 70.7354 66.9136 67.45L66.5618 66.6237L66.1247 65.5973L65.1625 66.162L62.1794 67.9132L61.4346 68.3504L61.7731 69.1442L62.1249 69.97C64.4054 75.327 69.0225 78.6546 74.1743 78.6546C79.3256 78.6546 83.9426 75.327 86.2241 69.97L86.5764 69.1447L86.9149 68.3504L86.1701 67.9132ZM52.9692 66.162L52.0071 65.5973L51.5694 66.6233L51.2171 67.4495C49.8178 70.7354 47.0358 72.7766 43.9565 72.7766C40.8772 72.7766 38.0952 70.7354 36.6959 67.45L36.3436 66.6237L35.9064 65.5973L34.9443 66.162L31.9611 67.9132L31.2168 68.3504L31.5549 69.1442L31.9066 69.97C34.1872 75.327 38.8042 78.6546 43.9565 78.6546C49.1073 78.6546 53.7248 75.327 56.0058 69.97L56.3581 69.1447L56.6967 68.3504L55.9524 67.9132L52.9692 66.162Z" fill="#ADA9AA"/>
<path fill-rule="evenodd" clip-rule="evenodd" d="M59.5567 95.733C56.9764 95.733 54.8848 97.8252 54.8848 100.406C54.8848 102.986 56.9764 105.077 59.5567 105.077C62.1366 105.077 64.2282 102.986 64.2282 100.406C64.2282 97.8252 62.1366 95.733 59.5567 95.733Z" fill="#ADA9AA"/>
<path fill-rule="evenodd" clip-rule="evenodd" d="M145.289 48.9586V52.2602H132.084V49.674L139.622 40.7593H132.276V37.4576H145.043V40.0439L137.505 48.9586H145.289Z" fill="#ADA9AA"/>
<path fill-rule="evenodd" clip-rule="evenodd" d="M138.684 19.462L138.686 25.0491L116.337 25.0584L116.335 20.6818L129.087 5.58968L116.655 5.59459L116.653 0.00748903L138.259 -0.00134277L138.261 4.37482L125.508 19.4674L138.684 19.462Z" fill="#ADA9AA"/>
<path fill-rule="evenodd" clip-rule="evenodd" d="M19.99 46.5739C14.7705 46.5739 10.5244 50.8234 10.5244 56.0465L11.7172 140.818L24.4171 124.524C25.3469 123.332 26.7747 122.634 28.2869 122.634H101.69C106.909 122.634 111.155 118.39 111.155 113.172L109.963 56.0465C109.963 50.8234 105.717 46.5739 100.497 46.5739H19.99ZM6.80921 160.001C6.27637 160.001 5.73862 159.915 5.21509 159.734C3.23385 159.054 1.9037 157.189 1.9037 155.094L0.710938 56.0471C0.710938 45.4131 9.35911 36.7614 19.9895 36.7614H100.497C111.128 36.7614 119.775 45.4131 119.775 56.0471L120.968 113.173C120.968 123.801 112.32 132.448 101.689 132.448H30.6827L10.6799 158.111C9.73201 159.327 8.29293 160.001 6.80921 160.001Z" fill="#DFDDDE"/>
</svg>
