<svg width="24" height="24" viewBox="0 0 24 24" fill="none" xmlns="http://www.w3.org/2000/svg">
<path d="M17.496 11.995C18.9547 11.995 20.3536 12.5745 21.3851 13.6059C22.4165 14.6374 22.996 16.0363 22.996 17.495C22.996 18.9537 22.4165 20.3526 21.3851 21.3841C20.3536 22.4155 18.9547 22.995 17.496 22.995C16.0373 22.995 14.6384 22.4155 13.6069 21.3841C12.5755 20.3526 11.996 18.9537 11.996 17.495C11.996 16.0363 12.5755 14.6374 13.6069 13.6059C14.6384 12.5745 16.0373 11.995 17.496 11.995ZM12.019 13.995C11.7193 14.4625 11.481 14.9666 11.31 15.495H4.249C4.15047 15.4949 4.05289 15.5142 3.96183 15.5518C3.87078 15.5895 3.78805 15.6447 3.71838 15.7144C3.64871 15.784 3.59347 15.8668 3.55582 15.9578C3.51818 16.0489 3.49887 16.1465 3.499 16.245V16.822C3.499 17.357 3.691 17.875 4.039 18.282C5.292 19.751 7.259 20.496 9.996 20.496C10.593 20.496 11.153 20.461 11.676 20.39C11.922 20.885 12.229 21.344 12.588 21.757C11.793 21.917 10.928 21.997 9.996 21.997C6.85 21.997 4.464 21.091 2.898 19.257C2.31839 18.5781 1.99997 17.7147 2 16.822V16.244C2 15.6475 2.23695 15.0755 2.65872 14.6537C3.08049 14.2319 3.65253 13.995 4.249 13.995H12.019ZM17.496 13.995L17.406 14.003C17.3061 14.0213 17.2141 14.0695 17.1423 14.1413C17.0705 14.2131 17.0223 14.3051 17.004 14.405L16.996 14.495V16.995H14.5L14.41 17.003C14.3101 17.0213 14.2181 17.0695 14.1463 17.1413C14.0745 17.2131 14.0263 17.3051 14.008 17.405L14 17.495L14.008 17.585C14.0263 17.6849 14.0745 17.7769 14.1463 17.8487C14.2181 17.9205 14.3101 17.9687 14.41 17.987L14.5 17.995H16.996V20.495L17.004 20.585C17.0223 20.6849 17.0705 20.7769 17.1423 20.8487C17.2141 20.9205 17.3061 20.9687 17.406 20.987L17.496 20.995L17.586 20.987C17.6859 20.9687 17.7779 20.9205 17.8497 20.8487C17.9215 20.7769 17.9697 20.6849 17.988 20.585L17.996 20.495V17.995H20.5L20.59 17.987C20.6899 17.9687 20.7819 17.9205 20.8537 17.8487C20.9255 17.7769 20.9737 17.6849 20.992 17.585L21 17.495L20.992 17.405C20.9737 17.3051 20.9255 17.2131 20.8537 17.1413C20.7819 17.0695 20.6899 17.0213 20.59 17.003L20.5 16.995H17.996V14.495L17.988 14.405C17.9697 14.3051 17.9215 14.2131 17.8497 14.1413C17.7779 14.0695 17.6859 14.0213 17.586 14.003L17.496 13.995ZM9.996 2C10.6526 2 11.3028 2.12933 11.9094 2.3806C12.516 2.63188 13.0672 3.00017 13.5315 3.46447C13.9958 3.92876 14.3641 4.47995 14.6154 5.08658C14.8667 5.69321 14.996 6.34339 14.996 7C14.996 7.65661 14.8667 8.30679 14.6154 8.91342C14.3641 9.52004 13.9958 10.0712 13.5315 10.5355C13.0672 10.9998 12.516 11.3681 11.9094 11.6194C11.3028 11.8707 10.6526 12 9.996 12C8.66992 12 7.39815 11.4732 6.46047 10.5355C5.52278 9.59785 4.996 8.32608 4.996 7C4.996 5.67392 5.52278 4.40215 6.46047 3.46447C7.39815 2.52678 8.66992 2 9.996 2ZM9.996 3.5C9.53637 3.5 9.08125 3.59053 8.65661 3.76642C8.23197 3.94231 7.84613 4.20012 7.52113 4.52513C7.19612 4.85013 6.93831 5.23597 6.76242 5.66061C6.58653 6.08525 6.496 6.54037 6.496 7C6.496 7.45963 6.58653 7.91475 6.76242 8.33939C6.93831 8.76403 7.19612 9.14987 7.52113 9.47487C7.84613 9.79988 8.23197 10.0577 8.65661 10.2336C9.08125 10.4095 9.53637 10.5 9.996 10.5C10.9243 10.5 11.8145 10.1313 12.4709 9.47487C13.1273 8.8185 13.496 7.92826 13.496 7C13.496 6.07174 13.1273 5.1815 12.4709 4.52513C11.8145 3.86875 10.9243 3.5 9.996 3.5Z" fill="#05051A"/>
</svg>
