<svg width="25" height="24" viewBox="0 0 25 24" fill="none" xmlns="http://www.w3.org/2000/svg">
<path d="M12.333 7C12.5319 7 12.7227 7.07902 12.8633 7.21967C13.004 7.36032 13.083 7.55109 13.083 7.75V11.25H16.583C16.7819 11.25 16.9727 11.329 17.1133 11.4697C17.254 11.6103 17.333 11.8011 17.333 12C17.333 12.1989 17.254 12.3897 17.1133 12.5303C16.9727 12.671 16.7819 12.75 16.583 12.75H13.083V16.25C13.083 16.4489 13.004 16.6397 12.8633 16.7803C12.7227 16.921 12.5319 17 12.333 17C12.1341 17 11.9433 16.921 11.8027 16.7803C11.662 16.6397 11.583 16.4489 11.583 16.25V12.75H8.08301C7.8841 12.75 7.69333 12.671 7.55268 12.5303C7.41203 12.3897 7.33301 12.1989 7.33301 12C7.33301 11.8011 7.41203 11.6103 7.55268 11.4697C7.69333 11.329 7.8841 11.25 8.08301 11.25H11.583V7.75C11.583 7.55109 11.662 7.36032 11.8027 7.21967C11.9433 7.07902 12.1341 7 12.333 7Z" fill="#05051A"/>
<path d="M3.33301 6.25C3.33301 5.38805 3.67542 4.5614 4.28491 3.9519C4.8944 3.34241 5.72105 3 6.58301 3H18.083C18.945 3 19.7716 3.34241 20.3811 3.9519C20.9906 4.5614 21.333 5.38805 21.333 6.25V17.75C21.333 18.612 20.9906 19.4386 20.3811 20.0481C19.7716 20.6576 18.945 21 18.083 21H6.58301C5.72105 21 4.8944 20.6576 4.28491 20.0481C3.67542 19.4386 3.33301 18.612 3.33301 17.75V6.25ZM6.58301 4.5C6.11888 4.5 5.67376 4.68437 5.34557 5.01256C5.01738 5.34075 4.83301 5.78587 4.83301 6.25V17.75C4.83301 18.716 5.61701 19.5 6.58301 19.5H18.083C18.5471 19.5 18.9923 19.3156 19.3204 18.9874C19.6486 18.6592 19.833 18.2141 19.833 17.75V6.25C19.833 5.78587 19.6486 5.34075 19.3204 5.01256C18.9923 4.68437 18.5471 4.5 18.083 4.5H6.58301Z" fill="#05051A"/>
</svg>
