<svg width="25" height="24" viewBox="0 0 25 24" fill="none" xmlns="http://www.w3.org/2000/svg">
<path d="M11.167 7C10.773 7 10.3829 7.0776 10.0189 7.22836C9.65497 7.37913 9.32425 7.6001 9.04567 7.87868C8.7671 8.15726 8.54612 8.48797 8.39535 8.85195C8.24459 9.21593 8.16699 9.60603 8.16699 10C8.16699 10.394 8.24459 10.7841 8.39535 11.1481C8.54612 11.512 8.7671 11.8427 9.04567 12.1213C9.32425 12.3999 9.65497 12.6209 10.0189 12.7716C10.3829 12.9224 10.773 13 11.167 13C11.9626 13 12.7257 12.6839 13.2883 12.1213C13.8509 11.5587 14.167 10.7956 14.167 10C14.167 9.20435 13.8509 8.44129 13.2883 7.87868C12.7257 7.31607 11.9626 7 11.167 7ZM9.66699 10C9.66699 9.60218 9.82503 9.22064 10.1063 8.93934C10.3876 8.65804 10.7692 8.5 11.167 8.5C11.5648 8.5 11.9463 8.65804 12.2277 8.93934C12.509 9.22064 12.667 9.60218 12.667 10C12.667 10.3978 12.509 10.7794 12.2277 11.0607C11.9463 11.342 11.5648 11.5 11.167 11.5C10.7692 11.5 10.3876 11.342 10.1063 11.0607C9.82503 10.7794 9.66699 10.3978 9.66699 10Z" fill="#05051A"/>
<path d="M2.66699 6.25C2.66699 5.65326 2.90405 5.08097 3.326 4.65901C3.74796 4.23705 4.32026 4 4.91699 4H17.417C17.7125 4 18.005 4.0582 18.278 4.17127C18.551 4.28434 18.7991 4.45008 19.008 4.65901C19.2169 4.86794 19.3826 5.11598 19.4957 5.38896C19.6088 5.66194 19.667 5.95453 19.667 6.25V13.75C19.667 14.0455 19.6088 14.3381 19.4957 14.611C19.3826 14.884 19.2169 15.1321 19.008 15.341C18.7991 15.5499 18.551 15.7157 18.278 15.8287C18.005 15.9418 17.7125 16 17.417 16H4.91699C4.32026 16 3.74796 15.7629 3.326 15.341C2.90405 14.919 2.66699 14.3467 2.66699 13.75V6.25ZM4.91699 5.5C4.71808 5.5 4.52731 5.57902 4.38666 5.71967C4.24601 5.86032 4.16699 6.05109 4.16699 6.25V7H4.91699C5.1159 7 5.30667 6.92098 5.44732 6.78033C5.58797 6.63968 5.66699 6.44891 5.66699 6.25V5.5H4.91699ZM4.16699 11.5H4.91699C5.51373 11.5 6.08603 11.7371 6.50798 12.159C6.92994 12.581 7.16699 13.1533 7.16699 13.75V14.5H15.167V13.75C15.167 13.1533 15.404 12.581 15.826 12.159C16.248 11.7371 16.8203 11.5 17.417 11.5H18.167V8.5H17.417C16.8203 8.5 16.248 8.26295 15.826 7.84099C15.404 7.41903 15.167 6.84674 15.167 6.25V5.5H7.16699V6.25C7.16699 6.54547 7.10879 6.83805 6.99572 7.11104C6.88265 7.38402 6.71691 7.63206 6.50798 7.84099C6.29905 8.04992 6.05101 8.21566 5.77803 8.32873C5.50505 8.4418 5.21247 8.5 4.91699 8.5H4.16699V11.5ZM18.167 7V6.25C18.167 6.05109 18.088 5.86032 17.9473 5.71967C17.8067 5.57902 17.6159 5.5 17.417 5.5H16.667V6.25C16.667 6.664 17.003 7 17.417 7H18.167ZM18.167 13H17.417C17.2181 13 17.0273 13.079 16.8867 13.2197C16.746 13.3603 16.667 13.5511 16.667 13.75V14.5H17.417C17.6159 14.5 17.8067 14.421 17.9473 14.2803C18.088 14.1397 18.167 13.9489 18.167 13.75V13ZM4.16699 13.75C4.16699 14.164 4.50299 14.5 4.91699 14.5H5.66699V13.75C5.66699 13.5511 5.58797 13.3603 5.44732 13.2197C5.30667 13.079 5.1159 13 4.91699 13H4.16699V13.75Z" fill="#05051A"/>
<path d="M5.06836 17.5004C5.33166 17.9566 5.71051 18.3355 6.16676 18.5988C6.62301 18.8621 7.14057 19.0006 7.66736 19.0004H17.9174C18.5411 19.0004 19.1588 18.8775 19.7351 18.6388C20.3114 18.4001 20.835 18.0502 21.2761 17.6091C21.7172 17.168 22.0671 16.6444 22.3058 16.0681C22.5445 15.4918 22.6674 14.8741 22.6674 14.2504V9.00037C22.6674 7.89037 22.0644 6.92037 21.1674 6.40137V14.2504C21.1674 15.1123 20.825 15.939 20.2155 16.5485C19.606 17.158 18.7793 17.5004 17.9174 17.5004H5.06836Z" fill="#05051A"/>
</svg>
