<svg width="25" height="24" viewBox="0 0 25 24" fill="none" xmlns="http://www.w3.org/2000/svg">
<path d="M10.5819 3C11.952 2.99983 13.2941 3.38789 14.4527 4.11922C15.6113 4.85054 16.5389 5.89519 17.1281 7.13212C17.7173 8.36905 17.944 9.74762 17.7818 11.1081C17.6197 12.4686 17.0753 13.7552 16.2119 14.819L21.1119 19.719C21.2464 19.8527 21.3253 20.0323 21.3327 20.2218C21.3401 20.4113 21.2755 20.5966 21.1518 20.7403C21.0281 20.8841 20.8545 20.9756 20.666 20.9965C20.4775 21.0174 20.2881 20.9661 20.1359 20.853L20.0519 20.78L15.1509 15.88C14.2498 16.6111 13.1863 17.1153 12.0499 17.35C10.9135 17.5848 9.73735 17.5434 8.62027 17.2293C7.5032 16.9151 6.47785 16.3374 5.63039 15.5447C4.78294 14.752 4.13814 13.7675 3.75019 12.6738C3.36223 11.5802 3.24246 10.4094 3.40094 9.25989C3.55941 8.11035 3.9915 7.01565 4.66089 6.06778C5.33028 5.1199 6.21742 4.34655 7.24775 3.81272C8.27807 3.27889 9.42149 3.00018 10.5819 3ZM10.5819 4.5C9.8268 4.5 9.07909 4.64873 8.38147 4.93769C7.68384 5.22666 7.04997 5.6502 6.51603 6.18414C5.9821 6.71807 5.55855 7.35195 5.26959 8.04957C4.98062 8.74719 4.8319 9.4949 4.8319 10.25C4.8319 11.0051 4.98062 11.7528 5.26959 12.4504C5.55855 13.1481 5.9821 13.7819 6.51603 14.3159C7.04997 14.8498 7.68384 15.2733 8.38147 15.5623C9.07909 15.8513 9.8268 16 10.5819 16C12.1069 16 13.5694 15.3942 14.6478 14.3159C15.7261 13.2375 16.3319 11.775 16.3319 10.25C16.3319 8.72501 15.7261 7.26247 14.6478 6.18414C13.5694 5.1058 12.1069 4.5 10.5819 4.5Z" fill="#05051A"/>
</svg>
