<svg width="51" height="24" viewBox="0 0 51 24" fill="none"
    xmlns="http://www.w3.org/2000/svg">
    <g clip-path="url(#clip0_1798_1048)">
        <path d="M41.1 24H9.9C9.26348 24 8.65303 23.7471 8.20294 23.297C7.75286 22.8469 7.5 22.2365 7.5 21.6V11.504H9.229L9.619 10.56H10.492L10.881 11.5H14.283V10.785L14.587 11.505H16.353L16.657 10.773V11.503H25.11V9.95895H25.27C25.384 9.96295 25.417 9.97295 25.417 10.163V11.505H29.79V11.146C30.237 11.373 30.764 11.506 31.323 11.506L31.418 11.505H31.413H33.253L33.647 10.565H34.52L34.905 11.505H38.451V10.611L38.987 11.505H41.823V5.60095H39.016V6.29795L38.623 5.60095H35.737V6.29795L35.376 5.60095H31.479C30.8886 5.57112 30.3003 5.69263 29.77 5.95395L29.791 5.94495V5.60095H27.103V5.94495C26.7776 5.68851 26.3667 5.56583 25.954 5.60195H25.96H16.137L15.478 7.12695L14.801 5.60195H11.707V6.29895L11.366 5.60195H8.726L7.503 8.40195V2.40195C7.503 1.76543 7.75586 1.15498 8.20594 0.704897C8.65603 0.25481 9.26648 0.00195313 9.903 0.00195312H41.103C41.7395 0.00195313 42.35 0.25481 42.8001 0.704897C43.2501 1.15498 43.503 1.76543 43.503 2.40195V12.882H41.63C41.6 12.88 41.564 12.88 41.529 12.88C41.095 12.88 40.692 13.01 40.356 13.233L40.364 13.228V12.882H37.594C37.1612 12.858 36.7331 12.981 36.379 13.231L36.385 13.227V12.881H31.439V13.227C31.0341 12.9986 30.5768 12.8794 30.112 12.881H30.073H30.075H26.812V13.227C26.3857 12.9539 25.8798 12.8323 25.376 12.882L25.385 12.881H21.734L20.898 13.785L20.116 12.881H14.662V18.789H20.014L20.875 17.871L21.686 18.789H24.985V17.406H25.445C25.8873 17.4232 26.3284 17.3494 26.741 17.189L26.719 17.197V18.791H29.439V17.252H29.57C29.736 17.252 29.753 17.258 29.753 17.426V18.792H38.019L38.12 18.794C38.594 18.794 39.036 18.652 39.404 18.409L39.395 18.414V18.792H42.017L42.142 18.794C42.633 18.794 43.1 18.693 43.524 18.51L43.501 18.519V21.601C43.501 22.2375 43.2481 22.8479 42.7981 23.298C42.348 23.7481 41.7375 24.001 41.101 24.001L41.1 24ZM28.605 17.961H27.587V13.726H29.923C30.3449 13.6868 30.7697 13.7578 31.156 13.932L31.14 13.926C31.453 14.098 31.662 14.426 31.662 14.802L31.66 14.869V14.866L31.661 14.904C31.661 15.39 31.368 15.808 30.948 15.99L30.94 15.993C31.141 16.065 31.309 16.188 31.434 16.347L31.436 16.349C31.5772 16.5827 31.6363 16.8568 31.604 17.128L31.605 17.122V17.96H30.589V17.43C30.6371 17.1414 30.5792 16.8452 30.426 16.596L30.429 16.601C30.3234 16.5208 30.2027 16.4629 30.0742 16.4308C29.9456 16.3987 29.8118 16.3929 29.681 16.414L29.687 16.413H28.605V17.96V17.961ZM28.605 14.601V15.552H29.835C30.0087 15.568 30.1835 15.5369 30.341 15.462L30.335 15.465C30.3993 15.4234 30.4523 15.3664 30.489 15.2992C30.5256 15.2319 30.5449 15.1566 30.545 15.08L30.544 15.057C30.549 14.9805 30.5321 14.9053 30.4955 14.838C30.4589 14.7707 30.4039 14.7152 30.337 14.678L30.335 14.677C30.1832 14.6091 30.0165 14.5815 29.851 14.597H29.855L28.605 14.601ZM19.58 17.96H15.573V13.726H19.643L20.888 15.114L22.175 13.726H25.408C26.556 13.726 27.114 14.183 27.114 15.121C27.114 16.076 26.537 16.54 25.354 16.54H24.089V17.959H22.122L20.876 16.56L19.581 17.96H19.58ZM23.081 14.18L21.527 15.85L23.081 17.574V14.18ZM16.582 16.235V17.077H19.07L20.22 15.835L19.114 14.601H16.581V15.371H18.803V16.234L16.582 16.235ZM24.089 14.602V15.68H25.396C25.796 15.68 26.026 15.476 26.026 15.12C26.026 14.78 25.812 14.601 25.407 14.601L24.089 14.602ZM42.127 17.962H40.173V17.052H42.119C42.2646 17.072 42.4123 17.0339 42.53 16.946L42.529 16.947C42.5666 16.9121 42.5965 16.8699 42.617 16.8229C42.6375 16.7759 42.648 16.7252 42.648 16.674V16.658C42.6481 16.6073 42.6371 16.5573 42.6159 16.5114C42.5946 16.4654 42.5636 16.4247 42.525 16.392C42.4215 16.3172 42.2939 16.2836 42.167 16.298H42.169L41.982 16.292C41.068 16.268 40.033 16.24 40.033 14.987C40.033 14.377 40.415 13.726 41.484 13.726H43.501V14.628H41.656C41.5135 14.612 41.3695 14.6407 41.244 14.71L41.248 14.708C41.1986 14.7404 41.1589 14.7856 41.1331 14.8388C41.1072 14.8919 41.0961 14.9511 41.101 15.01V15.009V15.02C41.101 15.0873 41.1223 15.153 41.1618 15.2076C41.2013 15.2622 41.257 15.3029 41.321 15.324L41.323 15.325C41.4498 15.364 41.5825 15.3803 41.715 15.373H41.712L42.261 15.387C42.6748 15.3457 43.0883 15.4689 43.412 15.73L43.409 15.728C43.439 15.752 43.465 15.778 43.488 15.807L43.489 15.808L43.501 17.42C43.3328 17.6165 43.1189 17.7686 42.8781 17.8629C42.6372 17.9573 42.3769 17.9909 42.12 17.961L42.127 17.962ZM38.178 17.962H36.206V17.052H38.168C38.3148 17.0712 38.4634 17.0332 38.583 16.946L38.581 16.947C38.6183 16.912 38.6481 16.8697 38.6684 16.8227C38.6887 16.7758 38.6991 16.7251 38.699 16.674V16.664C38.699 16.6125 38.688 16.5616 38.6668 16.5147C38.6455 16.4678 38.6146 16.426 38.576 16.392C38.4707 16.3171 38.3414 16.2836 38.213 16.298H38.215L38.029 16.292C37.118 16.268 36.084 16.24 36.084 14.987C36.084 14.377 36.464 13.726 37.531 13.726H39.559V14.628H37.703C37.5615 14.6122 37.4185 14.6408 37.294 14.71L37.298 14.708C37.2455 14.7441 37.2037 14.7938 37.177 14.8517C37.1504 14.9096 37.1399 14.9737 37.1467 15.0371C37.1534 15.1005 37.1772 15.1609 37.2155 15.2119C37.2537 15.263 37.305 15.3027 37.364 15.327L37.366 15.328C37.4944 15.3673 37.6289 15.3836 37.763 15.376H37.76L38.305 15.39C38.721 15.3499 39.1363 15.4732 39.463 15.734L39.46 15.731C39.5699 15.8521 39.6535 15.9947 39.7054 16.1498C39.7574 16.3049 39.7767 16.4691 39.762 16.632V16.627C39.765 17.51 39.23 17.96 38.175 17.96L38.178 17.962ZM35.6 17.962H32.22V13.725H35.597V14.6H33.23V15.37H35.542V16.233H33.23V17.075L35.6 17.079V17.959V17.962ZM37.57 10.676H35.509L35.115 9.73195H33.013L32.631 10.676H31.447C30.9153 10.704 30.3917 10.5365 29.975 10.205L29.98 10.208C29.782 9.98947 29.6318 9.73213 29.5388 9.45234C29.4458 9.17256 29.4122 8.87647 29.44 8.58295L29.439 8.59095C29.4132 8.29203 29.4485 7.991 29.5428 7.70615C29.637 7.4213 29.7881 7.15858 29.987 6.93395L29.985 6.93595C30.195 6.75234 30.4405 6.6139 30.7063 6.52926C30.9721 6.44462 31.2525 6.41558 31.53 6.44395L31.522 6.44295H32.502V7.34595H31.542C31.4015 7.32786 31.2588 7.34097 31.124 7.38436C30.9891 7.42774 30.8656 7.50033 30.762 7.59695L30.763 7.59595C30.5492 7.86976 30.4454 8.21358 30.472 8.55995V8.55495C30.4401 8.91082 30.5401 9.26599 30.753 9.55295L30.75 9.54895C30.9488 9.71142 31.2033 9.78966 31.459 9.76695H31.455H31.909L33.34 6.43695H34.86L36.573 10.437V6.43695H38.114L39.892 9.38495V6.43695H40.932V10.669H39.488L37.568 7.49095V10.669L37.57 10.676ZM34.071 7.15795L33.374 8.84595H34.771L34.071 7.15795ZM24.272 10.674H23.26V6.43995H25.588C26.013 6.39586 26.4419 6.4681 26.829 6.64895L26.814 6.64295C26.9696 6.72902 27.0994 6.85519 27.1898 7.00836C27.2802 7.16153 27.3279 7.3361 27.328 7.51395L27.326 7.58395V7.58095V7.61195C27.3261 7.84291 27.2595 8.06898 27.1343 8.26303C27.009 8.45708 26.8305 8.61088 26.62 8.70595L26.612 8.70895C26.813 8.78495 26.982 8.90695 27.111 9.06295L27.113 9.06495C27.2557 9.29953 27.3146 9.57557 27.28 9.84795L27.281 9.84195V10.673H26.26L26.256 10.139V10.059C26.2923 9.79785 26.2346 9.53234 26.093 9.30995L26.096 9.31495C25.9901 9.23714 25.8698 9.18109 25.7421 9.15002C25.6144 9.11895 25.4818 9.11349 25.352 9.13395L25.358 9.13295H24.273V10.673L24.272 10.674ZM24.272 7.32095V8.26095H25.5C25.6735 8.27977 25.8487 8.24854 26.005 8.17095L26 8.17295C26.0641 8.13401 26.117 8.07925 26.1538 8.01393C26.1906 7.9486 26.2099 7.87492 26.21 7.79995L26.209 7.77195C26.2141 7.69597 26.1968 7.62116 26.1593 7.55487C26.1218 7.48859 26.0657 7.43474 25.998 7.39995L25.996 7.39895C25.8438 7.33366 25.6781 7.30621 25.513 7.31895H25.516L24.272 7.32095ZM13.556 10.674H11.5L11.111 9.72995H9.003L8.611 10.674H7.511L9.324 6.43995H10.827L12.548 10.447V6.43995H14.199L15.523 9.31095L16.74 6.43995H18.425V10.672H17.385L17.383 7.35995L15.916 10.673H15.028L13.557 7.35495V10.673L13.556 10.674ZM10.052 7.15795L9.363 8.84595H10.745L10.052 7.15795ZM28.94 10.673H27.908V6.43995H28.941V10.672L28.94 10.673ZM22.554 10.673H19.18V6.43995H22.56V7.31995H20.192V8.08295H22.503V8.95195H20.19V9.79795H22.558V10.672L22.554 10.673Z" fill="black"/>
    </g>
    <defs>
        <clipPath id="clip0_1798_1048">
            <rect width="36" height="24" fill="white" transform="translate(7.5)"/>
        </clipPath>
    </defs>
</svg>
