<svg width="51" height="20" viewBox="0 0 51 20" fill="none" xmlns="http://www.w3.org/2000/svg">
<g clip-path="url(#clip0_1798_1045)">
<path d="M10.2705 2.65028C9.70802 3.31591 8.80783 3.84109 7.90774 3.766C7.79524 2.866 8.23586 1.90956 8.75158 1.31884C9.31408 0.634469 10.2986 0.146875 11.0956 0.109375C11.1894 1.04697 10.8236 1.96581 10.2705 2.65028ZM11.0862 3.94422C9.78292 3.86922 8.66721 4.68484 8.04836 4.68484C7.42024 4.68484 6.47318 3.98172 5.44183 4.00047C4.10111 4.01922 2.85405 4.77859 2.16958 5.98816C0.763143 8.40719 1.80396 11.9889 3.16342 13.9578C3.82914 14.9329 4.62611 16.0018 5.67621 15.9643C6.67014 15.9268 7.06389 15.3174 8.26408 15.3174C9.47355 15.3174 9.82052 15.9643 10.8706 15.9455C11.9582 15.9268 12.6427 14.9705 13.3084 13.9953C14.0678 12.889 14.3772 11.8107 14.396 11.7544C14.3772 11.7357 12.2958 10.9388 12.2771 8.53844C12.2583 6.532 13.9179 5.57566 13.9929 5.51941C13.0552 4.13172 11.5926 3.98172 11.0862 3.94422ZM18.6153 1.22509V15.8425H20.8842V10.8451H24.0252C26.8943 10.8451 28.9102 8.87613 28.9102 6.02575C28.9102 3.17547 26.9318 1.22519 24.1002 1.22519H18.6152L18.6153 1.22509ZM20.8842 3.13788H23.5001C25.4692 3.13788 26.5943 4.18797 26.5943 6.03503C26.5943 7.88209 25.4692 8.94166 23.4908 8.94166H20.8842V3.13788ZM33.0544 15.9549C34.4796 15.9549 35.8015 15.233 36.4016 14.0891H36.4485V15.8424H38.5488V8.56656C38.5488 6.457 36.8611 5.09744 34.2639 5.09744C31.8542 5.09744 30.0728 6.47575 30.0071 8.36969H32.0512C32.2199 7.46959 33.0543 6.87887 34.1982 6.87887C35.5859 6.87887 36.3641 7.52584 36.3641 8.71666V9.52291L33.5325 9.69166C30.8979 9.85103 29.4728 10.9293 29.4728 12.8046C29.4728 14.6986 30.9447 15.9549 33.0544 15.9549ZM33.6638 14.2203C32.4544 14.2203 31.6855 13.6391 31.6855 12.7483C31.6855 11.8295 32.4262 11.2951 33.842 11.2107L36.3641 11.0513V11.8763C36.3641 13.2452 35.2015 14.2203 33.6639 14.2203H33.6638ZM41.3522 19.8179C43.565 19.8179 44.6057 18.9741 45.5152 16.4144L49.5 5.23806H47.1935L44.5213 13.8734H44.4745L41.8023 5.23806H39.4301L43.2743 15.8799L43.068 16.5269C42.7211 17.6238 42.1585 18.0458 41.1553 18.0458C40.9772 18.0458 40.6303 18.0271 40.4896 18.0083V19.7616C40.6209 19.7991 41.1834 19.8179 41.3522 19.8179Z" fill="black"/>
</g>
<defs>
<clipPath id="clip0_1798_1045">
<rect width="48" height="19.7812" fill="white" transform="translate(1.5 0.109375)"/>
</clipPath>
</defs>
</svg>
