<svg width="24" height="24" viewBox="0 0 24 24" fill="none" xmlns="http://www.w3.org/2000/svg">
<g clip-path="url(#clip0_1643_62300)">
<path d="M23.641 14.9019C22.0377 21.3339 15.521 25.2439 9.09824 23.6405C2.66605 22.0371 -1.24389 15.5208 0.359518 9.09805C1.96283 2.66605 8.47002 -1.24389 14.9022 0.359519C21.325 1.95346 25.2444 8.46983 23.641 14.9019Z" fill="url(#paint0_linear_1643_62300)"/>
<path d="M17.7141 10.5055C17.9484 8.91172 16.7391 8.04922 15.0703 7.47734L15.6141 5.31172L14.3016 4.98359L13.7766 7.09297C13.4297 7.00859 13.0734 6.92422 12.7172 6.84922L13.2422 4.73047L11.9297 4.40234L11.3953 6.55859C11.1047 6.49297 10.8234 6.42734 10.5516 6.36172V6.35234L8.73281 5.90234L8.38594 7.30859C8.38594 7.30859 9.36094 7.53359 9.34219 7.54297C9.87656 7.67422 9.97031 8.03047 9.95156 8.31172L9.33281 10.7773C9.37031 10.7867 9.41719 10.7961 9.47344 10.8242C9.42656 10.8148 9.37969 10.8055 9.33281 10.7867L8.47031 14.2367C8.40469 14.3961 8.23594 14.6398 7.87031 14.5461C7.87969 14.5648 6.91406 14.3117 6.91406 14.3117L6.25781 15.8211L7.97344 16.2523C8.29219 16.3367 8.60156 16.4117 8.91094 16.4961L8.36719 18.6805L9.67969 19.0086L10.2234 16.843C10.5797 16.9367 10.9359 17.0305 11.2734 17.1148L10.7391 19.2711L12.0516 19.5992L12.5953 17.4148C14.8453 17.8367 16.5328 17.668 17.2359 15.6336C17.8078 14.0023 17.2078 13.0555 16.0266 12.4367C16.8984 12.2398 17.5453 11.668 17.7141 10.5055ZM14.7047 14.7242C14.3016 16.3555 11.5453 15.4742 10.6547 15.2492L11.3766 12.3523C12.2672 12.5773 15.1359 13.018 14.7047 14.7242ZM15.1172 10.4773C14.7422 11.968 12.4547 11.2086 11.7141 11.0211L12.3703 8.39609C13.1109 8.58359 15.5016 8.93047 15.1172 10.4773Z" fill="white"/>
</g>
<defs>
<linearGradient id="paint0_linear_1643_62300" x1="1199.35" y1="-0.575999" x2="1199.35" y2="2399.76" gradientUnits="userSpaceOnUse">
<stop stop-color="#F9AA4B"/>
<stop offset="1" stop-color="#F7931A"/>
</linearGradient>
<clipPath id="clip0_1643_62300">
<rect width="24" height="24" fill="white"/>
</clipPath>
</defs>
</svg>
