<svg width="51" height="20" viewBox="0 0 51 20" fill="none" xmlns="http://www.w3.org/2000/svg">
<g clip-path="url(#clip0_1798_1064)">
<path d="M35.5246 5.59929C36.8442 5.59929 37.8639 5.95919 38.6437 6.67901C39.4234 7.39873 39.7832 8.35844 39.7832 9.55807V15.3162H38.1038V13.9968H38.0438C37.3241 15.0765 36.3044 15.6163 35.1047 15.6163C34.085 15.6163 33.1853 15.3163 32.4656 14.7166C31.8058 14.1168 31.3859 13.277 31.3859 12.3773C31.3859 11.4176 31.7459 10.6378 32.4656 10.038C33.1853 9.43816 34.205 9.19826 35.4046 9.19826C36.4843 9.19826 37.3241 9.37826 37.9838 9.79807V9.37826C37.9838 8.81838 37.7748 8.2586 37.3568 7.89382L37.264 7.81873C36.7842 7.39882 36.1844 7.15891 35.5246 7.15891C34.5049 7.15891 33.7252 7.57882 33.1853 8.41854L31.6259 7.45863C32.5855 6.19901 33.8451 5.59929 35.5246 5.59929ZM27.0673 1.5206C28.1435 1.5206 29.1663 1.89513 29.9841 2.59357L30.1263 2.72013C30.966 3.43995 31.3859 4.51966 31.3859 5.65929C31.3859 6.79891 30.966 7.81863 30.1263 8.59835C29.2865 9.37816 28.2669 9.79798 27.0673 9.79798L24.1882 9.73798V15.3163H22.3887V1.52051L27.0673 1.5206ZM35.7645 10.6378C35.0447 10.6378 34.4449 10.8177 33.9651 11.1776C33.4852 11.4775 33.2453 11.8973 33.2453 12.4371C33.2453 12.917 33.4853 13.3369 33.8451 13.5768C34.265 13.8768 34.7448 14.0567 35.2247 14.0567C35.8965 14.0567 36.5683 13.7954 37.0937 13.3217L37.2041 13.2169C37.8039 12.6771 38.1038 12.0173 38.1038 11.2975C37.564 10.8777 36.7842 10.6377 35.7645 10.6377L35.7645 10.6378ZM27.1873 3.20004H24.1882V7.99863H27.1873C27.847 7.99863 28.5068 7.75873 28.9267 7.27891C29.8863 6.37919 29.8863 4.87966 28.9867 3.97985L28.9267 3.91985C28.4468 3.44004 27.847 3.14013 27.1872 3.20013L27.1873 3.20004ZM49.5002 5.8992L43.5621 19.515H41.7627L43.9819 14.7765L40.0831 5.9592H42.0026L44.8216 12.737H44.8816L47.6408 5.9592H49.5002V5.8992Z" fill="#5F6368"/>
<path d="M17.0501 8.53838C17.0501 7.99857 16.9901 7.45876 16.9301 6.91895H9.43262V9.97801H13.6912C13.5113 10.9376 12.9715 11.8374 12.1318 12.3773V14.3566H14.7109C16.2105 12.9771 17.0502 10.9376 17.0502 8.53848L17.0501 8.53838Z" fill="#4285F4"/>
<path d="M9.43224 16.2755C11.5915 16.2755 13.3909 15.5556 14.7106 14.356L12.1314 12.3767C11.4116 12.8565 10.5119 13.1564 9.43224 13.1564C7.39281 13.1564 5.59337 11.7769 4.99356 9.85742H2.35449V11.8968C3.73402 14.5959 6.43318 16.2755 9.43224 16.2755Z" fill="#34A853"/>
<path d="M4.99385 9.85817C4.63404 8.89845 4.63404 7.81883 4.99385 6.79911V4.75977H2.35479C1.21507 6.97911 1.21507 9.61827 2.35479 11.8975L4.99385 9.85817Z" fill="#FBBC04"/>
<path d="M9.43288 3.55978C10.5725 3.55978 11.6521 3.97969 12.4919 4.75941L14.7712 2.48016C13.3316 1.16053 11.4122 0.380813 9.49279 0.440719C6.49373 0.440719 3.73466 2.12025 2.41504 4.81941L5.0542 6.85875C5.59401 4.93931 7.39345 3.55978 9.43288 3.55978Z" fill="#EA4335"/>
</g>
<defs>
<clipPath id="clip0_1798_1064">
<rect width="48" height="19.125" fill="white" transform="translate(1.5 0.4375)"/>
</clipPath>
</defs>
</svg>
