<svg width="24" height="30" viewBox="0 0 24 30" fill="none" xmlns="http://www.w3.org/2000/svg">
<g clip-path="url(#clip0_1643_50102)">
<path d="M20.3592 3.04916C19.0528 1.56022 16.6915 0.921875 13.6706 0.921875H4.90306C4.60417 0.921886 4.31509 1.02852 4.08778 1.2226C3.86048 1.41669 3.70987 1.68549 3.66303 1.98069L0.0124031 25.1338C-0.0601594 25.5904 0.293372 26.0038 0.756122 26.0038H6.16887L7.52825 17.3816L7.48606 17.6516C7.5829 17.0421 8.10415 16.5926 8.7214 16.5926H11.2935C16.3465 16.5926 20.303 14.5402 21.4587 8.60309C21.4931 8.4275 21.5228 8.25659 21.5485 8.08963C21.4026 8.01238 21.4026 8.01238 21.5485 8.08963C21.8926 5.89522 21.5461 4.4015 20.3592 3.04916Z" fill="#27346A"/>
<path d="M9.59937 7.29912C9.74735 7.22866 9.9092 7.19215 10.0731 7.19225H16.9467C17.7606 7.19225 18.5198 7.24522 19.2135 7.35687C19.4077 7.38783 19.6008 7.42478 19.7926 7.46769C20.0645 7.52769 20.3333 7.60112 20.5979 7.68772C20.939 7.80162 21.2566 7.93428 21.5486 8.08963C21.8926 5.89437 21.5461 4.4015 20.3592 3.04916C19.0521 1.56022 16.6915 0.921875 13.6706 0.921875H4.90231C4.28497 0.921875 3.75978 1.37131 3.66303 1.98069L0.0124036 25.133C-0.0601589 25.5903 0.293372 26.0032 0.755372 26.0032H6.16887L8.98915 8.1185C9.01688 7.94271 9.08691 7.77629 9.19321 7.63355C9.29951 7.49082 9.43889 7.37605 9.59937 7.29912Z" fill="#27346A"/>
<path d="M21.4591 8.60331C20.3033 14.5396 16.3469 16.5928 11.2939 16.5928H8.72099C8.10374 16.5928 7.5824 17.0423 7.48649 17.6518L5.79533 28.3726C5.73215 28.7721 6.04115 29.1342 6.4454 29.1342H11.0082C11.2696 29.1341 11.5224 29.0408 11.7211 28.871C11.9198 28.7012 12.0514 28.4661 12.0922 28.2079L12.1367 27.9754L12.9966 22.5252L13.0521 22.224C13.0929 21.9658 13.2245 21.7307 13.4232 21.5609C13.6219 21.3911 13.8746 21.2978 14.136 21.2977H14.8189C19.2389 21.2977 22.6999 19.502 23.7112 14.3087C24.1334 12.1383 23.915 10.3263 22.7982 9.05359C22.4595 8.66809 22.0388 8.34972 21.5488 8.08984C21.5223 8.25766 21.4935 8.42772 21.4591 8.60331Z" fill="#2790C3"/>
<path d="M20.3394 7.60663C20.1592 7.55401 19.9773 7.50742 19.794 7.46694C19.602 7.42474 19.4089 7.38803 19.2149 7.35688C18.5204 7.24447 17.7617 7.19141 16.9471 7.19141H10.0743C9.91032 7.19104 9.74835 7.22787 9.60062 7.29913C9.43996 7.37582 9.30041 7.49052 9.19407 7.63329C9.08772 7.77607 9.01778 7.94261 8.9903 8.1185L7.52949 17.3808L7.4873 17.6508C7.5834 17.0413 8.10465 16.5918 8.72199 16.5918H11.2949C16.3478 16.5918 20.3042 14.5394 21.46 8.60235C21.4944 8.42675 21.5233 8.2566 21.5498 8.08888C21.2571 7.93438 20.9403 7.80088 20.5992 7.68772C20.5131 7.65918 20.4265 7.63215 20.3395 7.60663" fill="#1F264F"/>
</g>
<defs>
<clipPath id="clip0_1643_50102">
<rect width="24" height="28.3125" fill="white" transform="translate(0 0.84375)"/>
</clipPath>
</defs>
</svg>
