<svg width="24" height="12" viewBox="0 0 24 12" fill="none" xmlns="http://www.w3.org/2000/svg">
<g clip-path="url(#clip0_1193_29656)">
<path d="M23.9999 6.14434C23.9999 4.43768 23.1732 3.09102 21.5932 3.09102C20.0065 3.09102 19.0465 4.43773 19.0465 6.13103C19.0465 8.13765 20.1799 9.15098 21.8065 9.15098C22.5999 9.15098 23.1998 8.97098 23.6532 8.71767V7.38432C23.1999 7.61101 22.6799 7.75102 22.0199 7.75102C21.3732 7.75102 20.7999 7.52434 20.7266 6.73768H23.9865C23.9865 6.65097 23.9999 6.30433 23.9999 6.14434ZM20.7065 5.51102C20.7065 4.7577 21.1666 4.44434 21.5866 4.44434C21.9932 4.44434 22.4266 4.7577 22.4266 5.51102H20.7065ZM16.4733 3.09102C15.8199 3.09102 15.3999 3.39767 15.1666 3.61105L15.0799 3.19771H13.6133V10.9709L15.2799 10.6176L15.2866 8.73099C15.5266 8.90433 15.8799 9.15098 16.4666 9.15098C17.6599 9.15098 18.7466 8.19099 18.7466 6.07769C18.7399 4.14434 17.6399 3.09102 16.4732 3.09102H16.4733ZM16.0732 7.68432C15.6799 7.68432 15.4465 7.54435 15.2866 7.37101L15.2799 4.89766C15.4532 4.70435 15.6932 4.57104 16.0732 4.57104C16.6799 4.57104 17.0999 5.25101 17.0999 6.12433C17.0999 7.01767 16.6866 7.68432 16.0732 7.68432ZM11.3199 2.69769L12.9933 2.3377V0.984375L11.3199 1.33772V2.69769ZM11.3199 3.20436H12.9933V9.03764H11.3199V3.20436ZM9.52663 3.69767L9.41994 3.20436H7.97995V9.03764H9.64663V5.08437C10.0399 4.57104 10.7066 4.66437 10.9133 4.73768V3.20436C10.7 3.12435 9.91996 2.97768 9.52663 3.69767ZM6.19328 1.75771L4.56663 2.10435L4.55997 7.44432C4.55997 8.43103 5.29998 9.15764 6.28665 9.15764C6.8333 9.15764 7.23329 9.05766 7.45327 8.93766V7.58434C7.23999 7.67101 6.18662 7.97766 6.18662 6.991V4.62434H7.45327V3.20436H6.18662L6.19328 1.75771ZM1.68665 4.89766C1.68665 4.6377 1.89997 4.53767 2.25336 4.53767C2.75998 4.53767 3.39996 4.69104 3.90663 4.96437V3.39767C3.35332 3.17769 2.80667 3.09102 2.25336 3.09102C0.899995 3.09102 0 3.7977 0 4.97773C0 6.81765 2.5333 6.52436 2.5333 7.31771C2.5333 7.62432 2.26667 7.72435 1.89332 7.72435C1.34001 7.72435 0.633324 7.49766 0.0733121 7.19101V8.77767C0.693324 9.04434 1.31999 9.15764 1.89332 9.15764C3.27997 9.15764 4.2333 8.47102 4.2333 7.27768C4.22665 5.29104 1.68665 5.64433 1.68665 4.89766Z" fill="#635BFF"/>
</g>
<defs>
<clipPath id="clip0_1193_29656">
<rect width="23.9999" height="10.0312" fill="white" transform="translate(0 0.984375)"/>
</clipPath>
</defs>
</svg>
