<svg width="51" height="16" viewBox="0 0 51 16" fill="none" xmlns="http://www.w3.org/2000/svg">
<g clip-path="url(#clip0_1798_1071)">
<path d="M26.3244 5.17375C26.2971 7.333 28.2488 8.53788 29.7189 9.25431C31.2294 9.98931 31.7368 10.4607 31.7308 11.1181C31.7196 12.124 30.5259 12.568 29.409 12.5853C27.4603 12.6154 26.3272 12.0591 25.4265 11.6384L24.7245 14.9232C25.6283 15.3396 27.3017 15.7028 29.037 15.7188C33.1104 15.7188 35.7754 13.708 35.7898 10.5904C35.8057 6.63381 30.3171 6.41481 30.3546 4.64631C30.3675 4.11006 30.8792 3.53781 32.0004 3.39231C32.5554 3.31881 34.0875 3.26256 35.8245 4.06244L36.5062 0.884315C35.5721 0.544189 34.3716 0.218501 32.8768 0.218501C29.0428 0.218501 26.3462 2.25663 26.3244 5.17375ZM43.0571 0.492251C42.3133 0.492251 41.6865 0.926126 41.4067 1.59194L35.5881 15.4853H39.6585L40.4685 13.2468H45.4425L45.9124 15.4853H49.5L46.3693 0.492251H43.0571ZM43.6266 4.54244L44.8013 10.1725H41.5841L43.6266 4.54244ZM21.3892 0.492438L18.1807 15.4851H22.0596L25.2666 0.492064H21.3892M15.6512 0.492064L11.6139 10.6971L9.98081 2.02019C9.78919 1.05156 9.03244 0.492251 8.19206 0.492251H1.59244L1.5 0.927626C2.85487 1.22163 4.39425 1.69581 5.32687 2.20319C5.89762 2.51313 6.06038 2.78406 6.24788 3.52056L9.34106 15.4853H13.44L19.7243 0.492251L15.6512 0.492064Z" fill="url(#paint0_linear_1798_1071)"/>
</g>
<defs>
<linearGradient id="paint0_linear_1798_1071" x1="2208.25" y1="46.8123" x2="2253.12" y2="-1545.09" gradientUnits="userSpaceOnUse">
<stop stop-color="#222357"/>
<stop offset="1" stop-color="#254AA5"/>
</linearGradient>
<clipPath id="clip0_1798_1071">
<rect width="48" height="15.5625" fill="white" transform="translate(1.5 0.21875)"/>
</clipPath>
</defs>
</svg>
