<svg width="24" height="24" viewBox="0 0 24 24" fill="none" xmlns="http://www.w3.org/2000/svg">
<path d="M8.25012 12.6446L16.6799 20.0628C16.7774 20.1486 16.8956 20.2076 17.0228 20.234C17.15 20.2605 17.2819 20.2534 17.4055 20.2135C17.5292 20.1737 17.6403 20.1024 17.7281 20.0066C17.8159 19.9108 17.8774 19.7939 17.9064 19.6673L21.4327 4.27983C21.4632 4.14679 21.4568 4.00796 21.4142 3.87828C21.3716 3.74861 21.2944 3.63302 21.191 3.54396C21.0876 3.4549 20.9618 3.39576 20.8272 3.3729C20.6927 3.35004 20.5544 3.36433 20.4274 3.41424L3.12517 10.2115C2.97438 10.2708 2.84683 10.3773 2.76159 10.515C2.67636 10.6528 2.63803 10.8145 2.65235 10.9759C2.66666 11.1372 2.73285 11.2896 2.841 11.4103C2.94915 11.5309 3.09346 11.6133 3.25233 11.645L8.25012 12.6446Z" stroke="#110F10" stroke-width="2" stroke-linecap="round" stroke-linejoin="round"/>
<path d="M8.25 12.6446L21.0105 3.42871" stroke="#110F10" stroke-width="2" stroke-linecap="round" stroke-linejoin="round"/>
<path d="M12.46 16.3494L9.53033 19.2791C9.42544 19.384 9.2918 19.4554 9.14632 19.4843C9.00083 19.5133 8.85003 19.4984 8.71299 19.4416C8.57594 19.3849 8.45881 19.2888 8.3764 19.1654C8.29399 19.0421 8.25 18.8971 8.25 18.7487V12.6445" stroke="#110F10" stroke-width="2" stroke-linecap="round" stroke-linejoin="round"/>
</svg>
